<mxfile host="app.diagrams.net" modified="2021-02-19T23:35:25.267Z" agent="5.0 (Macintosh; Intel Mac OS X 10_14_3) AppleWebKit/537.36 (KHTML, like Gecko) Chrome/88.0.4324.182 Safari/537.36" etag="xPbix4s1csocPSUQxp74" version="14.4.2" type="github">
  <diagram name="Page-1" id="55a83fd1-7818-8e21-69c5-c3457e3827bb">
    <mxGraphModel dx="1892" dy="1830" grid="1" gridSize="10" guides="1" tooltips="1" connect="1" arrows="1" fold="1" page="1" pageScale="1" pageWidth="1100" pageHeight="850" background="#ffffff" math="0" shadow="0">
      <root>
        <mxCell id="0" />
        <mxCell id="1" parent="0" />
        <mxCell id="dfzYIINs8r5-yVM9q5u8-6" value="" style="shape=image;html=1;verticalAlign=top;verticalLabelPosition=bottom;labelBackgroundColor=#ffffff;imageAspect=0;aspect=fixed;image=https://cdn2.iconfinder.com/data/icons/nasty/60/apocolypse_nuclear_explosion_atomic_bomb-128.png;sketch=0;dashed=1;fontSize=24;" parent="1" vertex="1">
          <mxGeometry x="1332" y="700" width="128" height="128" as="geometry" />
        </mxCell>
        <mxCell id="Nn_NQeG1ST4IdmQyPQJt-1" value="" style="shape=singleArrow;direction=south;whiteSpace=wrap;html=1;rounded=1;shadow=0;dashed=1;labelBackgroundColor=none;sketch=0;strokeColor=#82B366;strokeWidth=2;fillColor=#B2C9AB;fontSize=24;fontColor=#000000;arrowWidth=0.36666666666666664;arrowSize=0.015841584158415842;" parent="1" vertex="1">
          <mxGeometry x="280" y="-60" width="49.74" height="970" as="geometry" />
        </mxCell>
        <mxCell id="Nn_NQeG1ST4IdmQyPQJt-2" value="" style="shape=image;verticalLabelPosition=bottom;verticalAlign=top;imageAspect=0;aspect=fixed;image=data:image/png,iVBORw0KGgoAAAANSUhEUgAAAPAAAADwCAYAAAA+VemSAAAABGdBTUEAALGPC/xhBQAAACBjSFJNAAB6JgAAgIQAAPoAAACA6AAAdTAAAOpgAAA6mAAAF3CculE8AAAABmJLR0QA/wD/AP+gvaeTAABW8klEQVR42u29d5wddb3///zMzOnbe7LJbnovBAIhJPReFJEiCiIgVqxfQL2ioKJfEf19Ldd7r4giXkQulosggtJ7CAkhvSck2c1ustm+p077/P6YOWfP1uymnV0yz8fjPJIzMzvtzGs+n8/78y5CSomHh8foRMn1CXh4eBw6noA9PEYxnoA9PEYxnoA9PEYxnoA9PEYxnoA9PEYxnoA9PEYxnoA9PEYxnoA9PEYxnoA9PEYxnoA9PEYxnoA9PEYxnoA9PEYxnoA9PEYxnoA9PEYxnoA9PEYxnoA9PEYxnoA9PEYxnoA9PEYxnoA9PEYxnoA9PEYxnoA9PEYxnoA9PEYxnoA9PEYxnoA9PEYxnoA9PEYxnoA9PEYxnoA9PEYxnoA9PEYxnoA9PEYxnoA9PEYxnoA9PEYxnoA9PEYx2kArhBC5Prf3KwpQA1QC7cAeIJHrk/IY2Ugp+12uDXtPHoeLDRQCFYD0fgOPw8F7eI4NAeAEYDIwFjgNKAI6gO1AA/AKsCrXJ+oxypBS9vvxOCKEgLOA/wK2Aqbb6vb3WQ2cnusT9hiZDKhTT8BHjYuAR4Fdg4i292cd8IFcn7jHyMMT8LEjAnwTqBuGcLM/9a74PTwyeAI+NhQA9wPxAcRpH6Qbnf6sBabm+mI8Rg4D6VQMJFZvGmnYVAL3Atf3ZxwM+DVOP3WmOXtadSI/P5RfVBCmpS3GX596i6079/W3v98CtwKpXF+YR+4ZUKeegI8I5cAvgKsBtffKhSdM4rZPX8LSU2fI/LyILZCqqqkgYdvORn7666d5+C+vI6Wd/WdJ4DLghVxfnEfu8QR89NCAbwN39ifeMxfP5Bc/uJEZk8dg2hLbkkgkSOceh0J+Wtqi/OBn/8uvHn4ePWVm//ly4FrXEOZxHDOQTj1XysPnMuBLvcWrKIKLzzmBn9z9cWZMHkMyZaLrJqZlYVk2lm1jWhZd0QSlxXl888tXcP4Z83rv+xTgbsCX64v0GJl4Aj48lgA/cp0yMpQURvjhv13L7376WeZMryaRNJAShFAQQkFx/pUIRYIgGktQUV7IzdeeSU11efauBPBR4EO5vlCPkYnXhT50pgIPuV5VGSKhAPfd9TE+fd25mLZNKmWCUJBWEj3ZhpVsR6g+VF8ERQtLRQsJoWgIBQoiQf77z69zx/f+wIGWzuzdvgtcDOzP9UV75AZvDHxkKQT+Hfh49sJAwMc9X7uGL99yEZZloRs2QtEwEi3Emjegx5qwpQkoKIqKUHwEIpWEymag+gvwa6BpGl/85oP85pEXse3Mb2MDP3bH2kauL97j2OONgY8s5/UWLwI+dsVpfO7G81EUQcqwEYpAjzbS0fA2ya56QKIoPhRFASmxzQTxtu3EmjeCraMbEr9f5forT6eirDB774o7pXR5ri/cY2ThCXj4lAFf7L1w3swavvLpS8iLBIglDISAeNt7dDS8jaV3oqgBEOnbLUAIhKIhVB+pjj3EW7YipU08ZnDivImcMLu29yHygK8Bxbm+AR4jB0/Aw+cK4MzsBcWFEW7/zKXMm1VLNGaAhHjzFrr2v4ttJxDKwEFfQjjG60TLFvTYXgzTJhwKcN2VSynMD/fefIHbEnt4gCfgYVMB3JG9QNNUbvrImVzzocXouoVpmsRaNhFt3gjSRoiDzwAJxYdlp0i0bsMyYsQTBh++5GQuu+DE3ptqwMfcsEQPD0/Aw+S63j7K82fV8snrziYQDJJMGiTathNr3QTYg7a8PZEoih8j1oIe349hmIRCAT59/TkUF0Z6bzzFde7w8PAEPAxqgS9kLwj4fVxx8UJmzawhFjfQEy3E27YjLXMY4nURCmCT6tiDtJNE4zonzpvIhWf3ce7wuUa0ouEdwOP9iCfgoSGA24BJ2Qtrqku5+NwTAIFhmqRijdhGHKVf8R48wsuZcmpGj7diWRK/38cnP3Y2Bfmh3pvOdZ1IPI5zvJQ6Q2MWcFX2goDfx4cuXsjc2ROIR3WkHsWINTlTtv2MexXFj20fZApXKNiWjhE/QCC/imQSTlkwhQvPns+fn3wre8sS4AbXwaMBCLvLioCg+8JpdzOCKG4Io+Kus4AtQNRN9SPcwIn3E7Xutafcj+Hej/fdHLon4KFxqTt9lKG8tIAPXrAQn6YSjxuYqXYsIwoDOMDIIbTAuGoyU+1IU8fWggT9Grd89Byee2Ud7R2x7M0+4I6HG1xhVrlCTveq2l2Bqq4jiOL+3hawHtjpZseUwF73bwKADvwF2AY05frGDwMNWOi6nV7oXkvSzfhpuQkWnnFzj9Xl+mSP5EV7DE4YOCc7oMCnKVx6/gmcNG8isVgSpI2ldyFNAyH6H5VI2xza0RQFy4hhmSk0LYhhWiyYV8vihVN55oXV2VuGgBPdz3CZ6rbK6d/fcF8Kiivoa93MIJvcRHt7XEHvAw7k+gfpRdgV7bWugEsBf38/gfsi3g38EfglEDuE440oPAEfnEnAzOwFleVFfPzK0wmF/HR0pcC2MFJdSGkN33jVC4GCtA1sy4njt21JJBTk7NNm9xbw4ZJ9or37/FXu50R36KADza4v9g63C74LeCOHoY4BtxfyOeBkIP+gt9ZxgZ0HTANmAF8fZb2MPngCPjjj3B8eXB/xE+dOYO6McSQSKYQQmEYcM9XhPCIcng+5RKKguIYwgZQ2UkouPmc+v3vsJWvT1gb1sA4wPBS3pQ+592AycKrbJTXdlLiNwGZghdtFbR2Sxe7QEO6L5UPAlW645cGE2x9B14awB/jhaLYBeAI+ONOyWyhVVRhfXUY4HCSR1AENU+/A0qNZrpKHjpQWvnA5qj/iDl3BtGwm1lTw5U9erHzl2/9NUndsMYoiEML5KEKgKFkvD3dZaXEEv99PS1sXpmkCAtOykOnsWwKkLTEte6j50BT343Ot4XOB8908YK8C/w08547BrSP0G6hAtdsbuB6YP5QZFCHEYNeT9i9/Dnj9CJ3nMccT8OAIt8UJphf4fSpTJ45B82nIhA5YmKlOpGUglMNpHCXSMvGFygiXTkdRg0hpWYAipRS2lFxz+WJhAw/+8SXCIT+TaiopLAwTCfkpKoxQM7Yczadg2zaqquLzqVRXlZCfF6KrK0FHV4xkyiCR1InHU+iGiaKqNLd2snFzPS3tUeLxFNt37aO1PYZl2aR0E9M8qA6Fm43zYneO+i3gb8Dz7tj5cErHlLvC/YI7GzAgqqoQCQeoLCtkYm0lwYCPhn2tvFd3gGgsSSrVxwhd6op4nZtkf9ThhRMOTinwtNtVA6C4IMKff/MVzl06h45oEqRF5753SbTvRFF9h9aFljZS2mihUvIrF+ALliClBU476exQgqoKNJ9KR0cCRRGUFOY5ra4TG4GUblpLWyIUAbbEsGykbaMoCoritMoooCpKposuhMAwLGxpE0+k2Ly9kf0H2jnQEmX1+vdYtnIbjU3txOMpYokUlmUP9crqgT+5cdN7hikSDZgDfN81Pg1IOORnTFUxZy+ezWXnL2DOzPFUlBTiD2i0tkd5b/d+Xnh9A7999GV21/WxweluVpXnj2LX/7DxaiMdGsXu/GoGVVMpyA9iSdsRgGVgm+kGZrjilUjbMXyFCicQLp2B4stLi9fZYdbvZlk2ti0pyA8iEcQSKXe1o1wpZfcpSKcbLSRIkT47iUQg3LG2SJ+zcAQtBAR8Pk6ZPwnVp4EiSCVS7GvqYNeeA2ze2cDK1TvYvLWBnXUHaGpuxzQHFfM44P8AnwCecl+Gb7liHox8d4x6a28DYjYVZQVMmzSGyy48kUvPOZEZU8ai+VT0lIFhWhiGSVFBmNMWzeC00+cxf1YtX/rWQ+yub87ejd8NTnnxCHb5jxleCzw4S4G/ukEMAEyqqeCFP3+LMZVFJHUb24jS0bACPd6EovqHvGMpLaS0UVU/4dKZhEtnOMsto9eLQGZElvlKd8Pcc3n2f4QzJS0zr4Ihv16k7N6Ppqr4/Rp+nwqKgq4bHGjuZNX6XTz36jpeXbaJhsZW4kmdWHxIGXDfctMQLXMtwL0fwGLXOvy1gd6IhQVhLjhzHh+74jQWL5xGZWUx0rSIxXUsW3bPxcv0uN4mGPATygvxnR/9iR/+4m/oRo9pvdfcWOu2I/TcHHG8FvjQmJw9/gWoGVdGZUURhmEihIptm66H1dDkIaUJUqJofnzBMoKFNQQKahCA3UO8aZGK7q8Z3LYz65DSFaiUvdYNQ7iZvWdZ0y3bJp7QiSckQgg0TaWyvJAPXLiQi8+ez+Zte1m7qY4DrZ2sXL2TFat3sHN3E8bA4+ZTXUPXC67leoPbIu90xfst4JP9/aGmKSxaMIWPX30GH7l8MUWlBZiJFF2dcWypOAY5aYJlgNBQND8KClKapHSDoBXgyktP4W/PrGDNxt3Zuz4NOBv436P4LB0VPAEPTlW2BVoRgrKSfEcoroXTNhPYVtIZcw6IRNq2E6GkBfAHywgWVOPPG4eiBZC2iZSm0+tJt5hZsushVLKsx+n1WUcacscp00plOuEDCj1b0KbbNSWexO/TmDV9PHNmTwBF0NHaxfrNdbz8xkb+9fIaNu9o7J3bK02+OxX0IdeZog542+1yn9PfH0wYV85NHz2TT1x9JrUTKtGTKdqbO5ykCAisVAd6ohkj2YxtJFDUIGqwiEC4DF+oFCEgmUwxbVIVc2aM7y1g1T3u3zKm/1GCJ+DBqXAdBjJkpmqk0z+1jBjS1Pv3wJIy01VW1CD+vAqC+ePxRypQtJDTxbOMHvJxd5vegbub7lY1e6o5u1Ee9oBHul3NtPVrGKSHV7puYRgJdzeCgN/HkkUzWHLKdD525RLeWbeLp557h3++tIb9TQParyKuU8WMgTY4/4y5fP3WD3LuGXMBSVdHFMuWzsvPTBJr30mycw9mqgts3RnnC6BDkAzkk1cxl1BBLZZtEwxqTBhfhqYpvcfvYw97Ej8HeAIeGNV9qDLKVBTB2MpifD6NlJ5y0sQqqiNERCa7huN8YSAQKL48ApFK/HlV+MNlKFrY2d42+hVOD4H2ahZ7t5JH4mnLdNQPScjOv7YEISVJ3SCpG/g0hZrqMiZOrOSCM+by2tub+c0jL/HEP1cOq+5WcVEen/rYWXz+xvOpnTCGeDSBrhsIoaKoPsxkG7HmTaS66h1XVUVDqIHu+yJtzFQ70ab1qL48fKEyhKYwbfJYCvPDtLRFsw+XP5Kt0APhCXhgPgIsyl6gKApTJ1ahqs70CwL8kTEEiyeQaNsBluUKQsEXKiaQPw5/uAJfsAih+AEbaelDPoFBDYlpwfUxYg0DKbMe9kN/dkWvf03TpstIoigQDPi59PyTOGXBFM5dOodf/vafbNnZeNB9Tqwp57t3XM01HzgVn1+jsz2KbdsoqoYQKqmuBqIH1qMnW1CEiujPgCgUFDWApXeSaN+JGigA/EyfVEVJUV5vAZe5ftXRg57cCMIT8MBMz3ahxJ16GV9dSsaNSdooWpC88nmoaohUtBFFCxLIqyIQGYPiy0coSneLeySRMjMe7m2zzmagdUNpveVhbJd+v8QTOsmUQXFBhM/ecC6nnTyV//3HCp57dR0bt9QTjff1Yjx7ySzu/PIVnLl4FqZl0dkZd7zNND9Im2THLqLNmzCT7SiqdpCzdNYZsf1YiXbsvDzGVhVTVlLAtvd6FJUb6362Htkf6ujiCXhg9rkeRBlf25nTxjFr2ngSSaO7dbQtFDVIuGwmwaKJTr5nNZjpkg4m3KEIRPY/qQSHIK5hW6MP4Xz77EM4UyDRWAKfT2X+rFqmThzDJ645nZ27m3h52SZ27tqHadpEwgEWnzyN88+cR011KamUgWE62U0UVUVPtJJo3UYq2oht6oiDijd9DiqWESMVP4BuVFJSnE/tuDKWvdNDqwXARE/A7x/U7PGvEDBz6liqxxSh684USeaBlhZCKGg+J39Veu7xYAxFDOJgf5NlTR5OJ1gOsL9BrdEDbDPQ9j1eHkJgmjZRM4mmqdRUl1EzrpzFJ00jZRhYpo2iKeSFAyhCIZk0kFKiKBrSMoi3byfevgMz2eVMjQ3HbdVNlGAm2zCNFMFAkNLiCKqiYNmZ3ynt2/2vYdzGnOMJuH8+6OZ+zsrrKijID6MKJeOw0+PBlXLIQfsDkXngh2NQypoGGg4HE+mh/O1QtzNNC9O0nG6xKghrAdLGd8uyMWx3DlkomKlOug6sxYg3OWN2RXGCRrKcTYZ6NpYRxzZTKOEIkUgQVVOw9IyAFdd1dlThCbgnArjdLRXaY/wrBMyfVQOKGJYldbgHh+EblAbb+rAs1YdgmR7WeUuJZQ2wfyGwzRTRlo2kuvY6fubpqbphi9fpAdhWEtNIoCgKwYDP8QvvyaiaA8YTcA9UN+LlOz1bXofJtZWcf/pcDH2ImTUOwqGMJ4fDsPY9kFAPUbwDdc+Hd+1OZhIj1uS0uoOa6oZ4VtJ2nMuFcCtE9jmLYxlrfUTwslI6KG7C9H7FW1qUx3fuuIqa6tLBXASHxVCMV0N9TEU/n2FxBFrZ3hbug9uFD4aNGsjDFy5H2sO5GwOfoKIGUbQApmERjSV7R1VJN6Z5VOEJ2OEM4J7+ci1XlBbyix/cyNWXnopuDF+8vR47y82SaB3siTwkIQ583KPOUC3iQ78ApxBcXuU8QoUTHVdUeegvTymcfGNCKCiKxLIldt8X16iLRvK60E6Q+HfcVKQZQkE/p544lTu/8iHOWTqbaDSJneX4MMwucPpVb0jQhZNETnMtn0el2zbQ1NPRYqBjyAEs3QzlnKRE8xWQXzUfKVMkO+pQVHHImU+6e8wCTRX9jYFHXYN2vAt4oRva1qNYWTDg40ufvJCvf+Fyikvy6OyI9XB6SpN+OIcw9ZLO9hjMys08vLf90TYoHaLI5UF6C4fr+iltHaEGyKuYBxJS0UbXGj28954AVF8eqi+EZZrEk27oYU9GXQs86t44R5ALgd/2jn4JBf184eYLueu2qygqDNPRHjtSusl2c1alE0ieeQoPatk+Aq6Oh77B4Vx1350Pe3hgm2iBYgrGLiJUPMV9lw3DmChtQEULFKKqfizLRjfMIc3Vj3SO1xb4IuB+N7F5hkDAx1c+dTF3fvkKfD6Vjs7EgOF5h/rMp1uscNCHP+DPPOC2aZFK6RhmdnI50e2n0TPA8JBHubLXXwv6umMOh+F6kh0q0tJRtCD5VSegaH5izZvcEMyDP8ISG0X1o2phKRSFVCIlotEUdt8WeFT5QXOcCviDwE97ixfgsx8/j2999cOE/D46ovEhZyUZeqYLiaqp5EdCHGjpYPVbm4nFdYqLwowfU8q4McWE8kPOHm0bUzdIJE1sN0gifTQhjlzgQebcjlZDfAS7/dJKIRQ/eWWzkZZOrHUr0jbcXGSDn4OiBlB8IVuAkNIWWR5Y2XQyyjjeBPxZN+NDde8Vt954AXfd9mGCQR8dXYlu8R6hsaeUklDQTyAU4I23NvGL3/6Tt1ZtJ5k0yIsEqaooZOqkKibXVDBj6jimTqyguqqU8vJC0BSwJNKySOkmhm7S8wEUQw/kH4DD7VEc6f0OtDdp6wjFT6R0DkLxk2h/z0moIAYfEwstiKKFFCEQKcMinuiT/sfyBDyy+ZZbnLsge6HPp/G1Wz/I7bdeRn44QGdnokfAvOhPvMPswabFm9JN7n/4Bf7zoWfZsqM7pK6puYOdu/fz5grHj768rICK0gKqKoqYN6uGE2bXUj2mlIk1ZZSXFpBfFHFEbdpI0xW1YWbmNYfSczicFje7+z2clvywLNJZNz/d6uaVz8YXqaCrcSWWHu2/KoabEEz1RRBqUGiaoLU9yt7G1t5b6qOx1MpIF/DJbmK5Ujfjf6FbnOrFYe7nRjdJWo8s/pFwgLv+z5V86VMXo6kKXV3JoVlNhyDe7Ic1FPSTSOrc/eO/8OD/vEw0NnghgAPNnRxo7mTDlnpeeG09xYUR8vNCFBWGGVNZzLSJlUydNJYpE6uYVFtBVXkhhUURUFWwbWJdcQzDGlTIh9MyHmqLK4a5/aD31x3/BiJjsUum03VgHdLS+4g4Xe7GHy5DVf0IVWF3fXN/qX6SnoCPHGXAXe54tdydLzXcf28Gfg/8fAiFtgRwiTvP20O8BXkhfnzX9dz40TOxLUk0msRNSdVPxM/wbUbpfaiqQjJlcOePHuM3j7yEfgiumG0dMdo6YuzZC2s37uHZlwWRcID8vCD5kRBVlUVMrq1gcm0ls6aN47wz5hIJBZ1u4qhLEtPN4L0EgbQtEDaBolpUX9gJekhkxQg7SbIJhMcQyKtGUSS2ZbJhcx3tnX20Gh2Nyd1HooCnA//uZgnsrwDXODfg4Cw3YujdQfb1Q+CW3lEmE2vLufebH+OKixdiGKYrqkyW5Awyy0p7KDilPeAHP/8bv+0lXp/Pxw033MA555xDQ0MDdXV17N27l7q6Ourq6mhtbSWV6j9NqxNfmyQaS9JIO1t3NvLaW5sI+H2EQwEuu2ABd992FTVjS4nGU8PSsJQS25aZsi3Hmt7xywft6ksnW6Y/byz5ikbswDr0+AE3OaDEF8gnXDYdRQshsDBSJg1NbSSTfeK0u7wx8OFTBfzArbUzGAG3Qv0v3cyGvVtiBfg28OXeaWHnzqzhZ9+7gTMXzyKeTGGZ9hExAvVGAgGfSl1jG396chmpLPFWVlby7W9/mxtvvJFwOIxpmpimiWEYWJbF9u3b+clPfsITTzwxoIj7HE9CMmWQTBk88tc32LhlLz++6zqWnDyNeGJ4aXxUNXfN9kHjnwe4eClNfKFSCscuItG1FzPRgmWlCBdNxB+qwLIMgj6NzliShsY2zL7VJXaNxkqFI8mRI+CWiryixwkqCuWlBUydOIbCgkjvVuFEd3ybTRi42zVY9RDv/Nm1/PcvPs/SU2YQjyexM0af/k/osB5jKfH7fOzctY8DLV2ZxZFIhK997Wt89rOfJRJxrsfn8xEKhSgoKKC1tZV77rmHJ554Al0fWHhCCBSl34gaLMtm5ZqdfPr237Bq3S5CwYNMs7wvcKON1BCR4ikUjDmJwrGLCORVY9uO67mqqbS1Rdmzt7m/HawYjVUKR0oLLNz6N19Pv1RUVeGkeZP43CfO56R5EwiHgrS0dfGnJ5fx7w8+i+5U6Au6nlQ/yeroht1yHJHsA9SOL+P/fefjzJ4+rscUwsFa3kO11qqqQiKZ4q//WE7KrSaoaRrXXHMNX/jCF1DVvtMe27Zt4+Mf/zjLly8/6P5LS0u5+qorEIqPN954g127dpFMJjEMA9udYtr2XiO3f/cPPPqrL1FaFDmkYIxjwZGdg7bdWT8FRVHdvdsIt3xMQ1M7+5v7DHUN4GUvK+WhU+h2hQMAmqrwiWvO5NtfvYLamgpSSR3Lshk/toSF8ydi25Kf/vrp9N9OcSvObxVCqEKI66WUl2S7JtaOL+O/7r2FpYumE0+mhj51IeBQfCaklISDQdZt3sM/nl+dmd4pKCjgM5/5DH5/3wyKtm1z3333DUm8AC0tLUyeMp3bbruNRCLBpk2bWLVqFW+//TaPP/44zc1OK/PWqu38zxNvcvtnLkU3DqdI4PDvwUBjaEWkSz7JzBT7kEQ87Ayc3RsqikAKWL1hN/ua+gx164C1x+zmHEFGShe61K2cDsCSU6bzna9dTe2EKtrboyTdYlWJpI6um3zqurMpLcpLb14OLFUUhUg4cFIwoN0qkZnWt7gowi++fyMXnTXXMVzIYfjiDvSgiIPvQdUUtuxopCvWLZpQKERFRUW/2+/cuZOVK1cO+YZJKdmwYUNmvyeeeCK33HILv/71r7n33nvJy3Puj2laPPHMStraY059o6OA3Y9XU3/i9flUQkEfgYCPYMBHMOgnFPQT9Gv4NLWH4axf35lhhgVnb+rzqSSTBqvW7SQa6/Mie3c0dp8ZQQKems7MH/BrfPiSUxg3poSujmifByFlmEyoKefSC05ML8oHJjlJG8S1piWnpH85v1/j21/9MBefNZ94PJUJGDjU8PDugglD2IMQ7D/Q0SNljKZpA7ZKy5YtY+fOncM6n1QqhWX17RbfcMMNzJuXeR+yZlMdL765kWAocETTAQkhsG0bXdf7FXH2dn6/hpSStZvq+Ns/V/DPl9fwxoqt7K4/QDTmDGmCAT/hcIBIJEAk7Mfv01BVZ5yfvuNyGH3tTIMtnSJt8XiSxv3t/W26ATgyqVaOMSOhC624U0cBgNkzxnPR2fOQboLwrKrzMt32aZrK4pOm8t9/ehW3RzZe09QltmVd446NAbjqskV84uozsKSNYcu+TvzDZLh/Ew75e4yxDcMgkei/G7tx40Y6O4c/i9F/S+dj4cKFLF++HMuySCZSvLFiC1deegqqovQXyH5ION1kBb/fP3B3WRFEwkF27mnigYef569Pr2DHrv34fCrhUIAJ48uZNmkskydUMnViJePGlFBdVUxJcR6RcIhw0I+qObMEti0xTBvLtLBsp9Rq76CPgbBtiaaqREKB/larnoAPnULg9PSXWdOqmTC+nFQi1f9DIR0ra211GZqmYpoWilDOBDEtpZsZH+eJNRXc9rnLKC6K0BlN4P5AEvANNfB8uGTvQ9o2YyqL8fs0YjgtTCKRGFCkmjb8nyIYDKIo/Xei0hZuAFtKOrvi2JZ9SCVUBsOpi9T/OSiKIC8SZFfdAb5172M89sSyzDrDsOgw4qzZsJs1G7oLjRXkh6iuKmFiTTkTxpczubaS2vHljKsqpry0gOLiPPLCAcK+AKgCbDDduXzdtPr39hKQ0g0KiyOceepMnnlxTcaw6HI58KBbIXFUMRIEPMn1lsLnU5k7fTz+UJDO9mjvt2rGp8KybKZMrKKkKEJTcydSylpdN2vT3bi8SIBbb7qAOdPGkUjoILGFM8bxH0461YORHe5nmhaTaisoyA/T1uF4/cTjcZ5++mkWLVrU529POOEE8vPz6erqGvLxampqBlxnGN0PaFpIaceSY4ETMuln/ZY6bv/eIzz70tBsRJ1dCTq79rJp297MsnDIT0VpIePGljBxfDnVY0uZWFPBxJpyKkoKqKwopLQ4j2DAR1c82W/yBdOysWybyy9ayB//9iYrVu/IXj0HuA+4zk15NGrItYCFmw0/BFBZXsT8OROclKK2PWC3TEonnjYvHKSJTqdLmPVkLjpxCjdcfTp+TSUeT9lCEbrryTX0CtyHc1ECdMNkTGUxFWUF7K53/ExSqRT/8R//gWVZnHbaaYwbN44ZM2bg9/u55JJLuOyyy3j00UeHdIzq6mouvPDCftelUjrbtm3PjI99msb0yWMRqpPI/Kg7WEmI5AXZXXeAL935e15+c2OP1bNmzaKqqoquri7a2tpobGwkFhvYDTme0NlVf4Bd9Qd4/e0tgDMlVFFWQFlJPuOrS5k8oZKPXr6YkxdM7bdciyIEsa4kEydU8rlPnMeGLfW9I5KuBP4MPHaU784RJdcCVl3XSACKC8OMrSoG++DzlUIR5OeH+123u66Z197ewocvXUQw6JfJlKEJMfi1DlbC5FB8odOlQq67cgkrV+/MJH1vaWnhBz/4ARUVFVRVVTF79mzOPPNMFi5cyI033sjWrVt55513Bt23pmncdtttnHLKKf0fO9lK/e4tGYNVOORnxuSxWdkdu6+026h15LzRNE1hz94Wvv6DR3uIV1EUPv3pT/OpT32KsrIy4vE4HR0d7N27l9bWVvbt28ff/vY3Vq9ejWVZbo+h/xtv2TaNTe00NrWzbnMdAG+8vYX/+dWXmDKhio7OeM+azQJsaZNMpLjuqtPZtnMfP/vNM04PrZu7gdXAliNzJ44+I0HAJZmTUVUCPvXgYzTpWJjHjSlmzYZdfVZv37Wfr3zr9wgJl194kmLZlkjXgh3IiHVILnyDnaIEXTe4+SNnsW5TPb/9Y88AqqamJpqamli7di2PP/44NTU1TJgwAdu2CQaD/bpQBgIB5s+fzyc/+Umuv/76Ace/+/dup6Wl29uouDDCmKpiTNPqrkMsHaEFA46hzTAsDDMdknh4Yvb5NB7+86v85anlWct8fPGLX+Suu+6isLCw37978MEHexj5eotXURQ0TRvQQ23Vul1860d/4oEff4pwOEAsnupRz1kIQSJpUFjo4/bPXcbzr63v3ZWeCXwauO0wf/5jRq4FTLZWVE11jDkH1a8k4PcxcXz5gNvUNbTwhW/+jqaWTnHD1UtRFYFly0MT5iGMGx1R2IRDfr5z24dBSl55ayPb39vfZ9tkMsnWrVvZunVrxkMr/fCqqoqqquTl5XH22Wdz6623cvbZZw967H//r9+yt6Elc3sn1JQztqIY3TAzxcaCAT8I2Le/DdO2KSwIU1wUAQR6ykB344uHauVNoygC3TB5/tV1PZafc845A4o3mUxy++2389hjj2UcUPr9GaSkpqaGj370o9i2zdq1a1m9ejV1dXWZbf761NsUFoT5wdc/QiQviJ4y3XOXTm5oRdAVTVJSVcJl557Au+t2YfacirsU+O5oCWwYCQLuLk4jhOMxMwTBqKpCSUneoNs07G/jBz9/nIXzJzJ72jhswzxmRhxcESeSOmUl+fzoWx+lrqGFtZvr+N9/vM2/XlpDMtW3cmHveV3bdkQUjUZ588032b17NxMmTGDGjBnMmTOHSZMmMWPGDAKBAOvXr+eBB+7nDw//CcP1/lIUwdRJYwhHAsTjTqseCQdpa4/x/+5/in88vwpV81FZVsCsadWcvWQWC+ZOpKK0gLz8MEjp5OrSLTeLo+M9NZCg/X4fr7y5iXVb6jPLCgsLufbaawdseX/0ox/xq1/9qt857WyklDQ0NDBjxgyuuuoq2traaGlp4aGHHuJnP/upk9TAtvnjX9/gpHkT+cwtF2M6Rs6e+7ElqWicT153Dk8+9y7vrO1hfJ7sJn/42rF7Ug6dkSDgzN0VfRcN+BdCCPIjocwiv0/j0vMWMH3SGB77+1u8t8cJLKnb28KLr29g5tRxg46pjiYp3SQcCjBrWjUzp1ZzwRlzWb+5jtUb9rB5+142b2tg+6597D/QNxw1neBO13UaGxtpbGxk5cqV+P1+wuEw4XCY6upqfD4fdXV1NDQ09BBCKOjjiotPRkpn3jQQ0DAMk188+Aw/e+CfPaZTXnpjAw//5TXKywqZOL6chfMmcvqiGUydNIayknzy84MI6UxL6YaJYVg97me6pfvTk2/S0dFtlJoyZQqXXXZZv/dm8+bN/PGPfzyoeNPE43GWLVvGNddcQ2VlJZWVlXznO99h0qRJ3HHHHUSjUWKJFN//6eMU5oW4+vLTiMWSfc4zEU9RPbaUH37zWr5w5+/Y2p0hRXNTL9UDvzjmD8swybWAFaC7GRWDxt+mLTCKdFvrqvLuN/qCORP44bc/Ru38qUysreRr9/yBji5nPPXWqu184iNnEg76j4C/ujyIVav/pkk3TDCcFrEgL8Tpi6az5OTp6KZFLJqgfl8ru+qa2bqjgc3bG9myo4H6vS0caOvqXQLE2Z+uo+s67e3tNDQ0DHi2H7/ydE47cSrJpIGiCHyaxpPPruSXDz7bey4Uw7RoaYvS0hZl87a9vPj6en75u2cZW1VMTXUZ0ydVMXXyGKZPGsvUSVVUlhdi2TaGGyShqSpt7TFWrNmRuTuqqrJ06VLKysr6Pb/nn3+evXv3Mhza2tqIxWKZFj0cDnPLLbfg8/n4/Oc/j67r1De28oOfP8782bXMmDaOjo5Yj1kNIQSdnTHOPWMO9935Ma679ZfEuq3S+e5Y+KmRPjecawGrQMY52LJsTMvuaT3sRvRupEuKu5NsnHbyNKZPGgOmwbxZ4ykvK8wIeN/+NnTdJBwMMDycEDXpHlqkfaDTPmHCKbol0oYhbLBt59/MSQsk3V5glmVjWwLTFE6ZDwGFhWGKiiPMn1WDbS9AN0yi0RQN+9vYVd/Mtp0NrN1cx5oNe9hdd4CUbrgt88BnLoTgxmvP5O47rgIhsCyJ36eiGwZvvbOdjs6DlwFK6SYp3aStI8bGrfU8+4qCqir4NI3acWV88IKT+NT1ZzNuTCmJpI6mqRxo7ugRLBAOh5kxY8aAx3jttdcGnULq91fJpN3tRtM0brjhBrZt28Z9992HlJKN2xr5j4ee48d3XYfP78PQzR5df1tCIqFz5pKZXH7hSTz6xJvZ9zRdseNLQPtwzu9YkmsBm24gNbgPTDJlgHIwF21nUiY/EiIU9GPZkskTKkFTsKNxqquKKS/NZ/t7+9ztxRCNV+nQGKfWr1ACqKEStFAliq8Aofi7iywoKkL1I1C7B4S2gW0msO2Ek59JqAihIaUFQkFaKexUK9KIYptJpLSQmNim4yRmIBHCaaULC0OUlESYP7sGOIlkSqe1Lcb2XY2s3bCHdzfsZtO2veyubyYaS2K6BidVVagsK+T6K0/nq5++hEhe0HlwEaiKQmc0QV1D85DuRo8743rAWZaNrpts3FrPpm17eX3FZn5+zyeYNXUcQih0xVJku7M6ftADT7+3tbUN+1wURenXAu/z+bj99tt59tlneffdd7Ftm6eeW8UVF5/CuWfOod0wkL2eBcO0CAX83HXbVazbUs+6TXsyp+5GyL0O/HrYJ3mMyLWAk26SujsBJZXS6Yomeg+Gk66fdOYXk+44rHpsEbOnj6OtI8bC+ZOQhoVhWJQW51Nc2B0OLIQ4SARS2jgjEKof1VeAFh4jfZEaoYTKD5qyNJuhbCktHWnFkdJAWimkEcO2TWy9HVvvwLbiWEYcyzKck0KiCIWKsnzGVhVz7unzsG2Lzq4Ejfvb2bRtL2s27qGjK870yWM5d+lsJtVWOONUPdsjS6GlNcaOfizhh4KUkteXb+H7P32cX/7fm5zEC5OqOOPUGTz57CoAOjs7efrpp7nxxhv7FV0kEhn2cWtqasjPz+93XWFhIWeccQbvvvtu5rf3ad0vWZE1/Ek/D8mUwaTaCr7yqYv41O0PZCd8z3eLAPx+pHpo5VrAAO8BjUB1Z1eSfU0dzli4p9r6FrGxbEqL8rnzyx+ipS3KnBnjicWS+DW1u6vrUlQYRtPUHsnRnY/tZC0UAtVfgpZfiy9cgxooldlRFEcaofoR6gCtkrSxrQR2qtU04/sMK9Xit41O1TbjWIaRmQMVQsHvU5kyoYJZ08Zy5QdPdfqE0unJxJN6n7smBHRGE/1lZDws3ly5lbqGFkpL8igpyuMzN5zHP19a64z7gTfffJNXX32Vs846q8/fnnrqqTzzzDNDTh1UUVHBueeeO2i+ruwWPxj0U1QYBstO5wnu92903eCCM+cxc1o1GzbXZ686z82r9quRWDtpJIQT6um6rG2dMTfdSUaAwnWz7NOwpf2eLz1/ATd+5Ewsy8YwTLSAj/0HOno8pCfMmUA4HHRr4aTHrhbYBoovQqB0AZFxFxEsPQk1VM7RFO9BEQqKFkGLjFeC5SeLcPUFMlJ9gQxVniaDxXOkP3+i1ELlUqhhaVqKTCRTtHd00dbaTnt7F+0dnSSSyX5tbLYtKSwIMXZMyaGc2YCYpoVhWggESd1g7sxaZk7tzp3f2NjId75zN2vXriGV6unmeN5551FZWTnkYy1evJiTTjppwPVSSjZv3pz5nkoZmXDFwbBsSXlJATdefSaa1kMW+W7h91lH9KYdIUaCgEmHcqVSBjv2HMA2zH5TzvRHPK4TjTmxvoqioAR9vLJsI1u2d1tmZ0wei6Yp3QYK2wDbRA2PIVx1FsHSkxBaeEjHO4YoQFAIRVP8RcJfME0EKxYTrj6P8NjzZbj6XBmqXCKDpSdKf+E0fOGxKP4ChBpwOonSQNpmD68207KoGVvKmYt6GpXS+bUOlYk1FVSWFyElmIZFeWk+n7vxfIKB7lxcr7zyKldeeSXf/e53efLJJ9m8eTPRaJSTTjqJG264gaKiooMeJz8/n8suu2zA+WRcD7dNmzZlvvs0J4nAwbp0Ukos2+a6K5dy6klT+1wisIgRyEjoQlvZ2RC2bG+gpbWL4oII0bg1RA8gp1hzXiRI14FOnvjXO+kQQiaML2fuzPGu1VKCNEHR8OVPIVh6IoqvYCgHGCkIECi+PKH48iBUmX4OpTQTwjKjSKMTS+/AijdgJpvB0t2eh4JpSPLzIyw+eRoR19WQLAH3Z90dCuedPpfqymIst4aTaVpcd+USGhrb+I/fP0tLqxNhtX37Dn74w3sBmDNnDkuXLmXJkiXMnz+fJUuW8NJLLxGP928dnzBhAnfccQe33HLLoOdy//33s337dve6YMbUsUwYX47ej9NMb0zLoqwkjxuuPsN+c8U2bNtOv9UCbpGB37v5s0YMI0HAKXfSfAHArj372bm7iUULp0I8OWSvZFUR+EJ+/vL35bz0RrcD/VWXLWLyhErHo8k2EWoQf8kJBIpnDamy3QinO95CC6FpIQiW4wNk4XTMxH6sRBNmqhkr2YxtxtF1jVMWTOGis07gr087vsqDZdMYCvNn1xIM+Ii5UUCWZRPwa3zrq1cwaUIFd977WJ9SJuvXr2f9+vX86le/orKykpKSkkzGkuyXiM/nY8KECXzjG9/g5ptvHvQ83n77bR544IHM92DAx2XnLaC4vICOlq6e88D97UCCZUnOPm22mDN9HGu7LdK4FUJmjrTcWSPhCe4ClgEfANhd38z6zfUsOnm6Mx88lDImUhKJhGlt6uDhv7yaybpfVVHE1ZctIuDzkUgmEGqQYPmp+Aun5fqajzpCi+DLn4QvfxK2EcVKHkDveo9UbA+VZUEuOXc2Tzy7gkyQxyF6qM2aVs2cGeOwpY0tZZZl1yQYFHzi2rPIzwvy//3XP1i9fjfxZN/x6P79+9m/37GM92ecUhSFF154gZUrVxIIBBg3bhwLFixgzJgxaJpGWVkZ69ev5ytf+UpmPwAL5k7k0nNPRE8agybZy3bNMS2b6qpicf1VS/n69x/Nvi8z3AyonoB7YQBr0l+SKYNNW+uxUgY+VUU3Bu9GS+l4+2hBH3//yzu8uqx7/HPztWcxZ0YNhmEgJQRKFxwX4u2N4stD8eWhhasxYvUgGli6uJPZUytZs6nRvY+HJuAbrj6DaZPHkEr1zEgjBCSTOqZpcfmFC5k5pZp31u5k23v72bF7H/V7W6nf10rDvjYSye7oot7nYRgGW7ZsYcuWnhF+NTU1lJWV4fP5KCsrY/PmzezY0R1ZVFaSzze+eDljx5bQ3h4dcpUJy7LwaT6uvuxU/vH8u7zS/Twp7pTSo8CRmYc7AowEAau9y32uXLOThv1tjKsuRe8Y3GNICEF+QZh1a9/jJ796ipgb3zl/di3XXbkEf0Aj2tWFLzyOQOH0XF9rThGqH3/BJGAcUxZM45OfbObf7voxsfjA6WYH8x9fvHAqH7l8MZqqELf0viGZQmBZNvFEimmTqpg5rZpkyiAWT9LaFmV/cyeN+9vYtG0v29/bx3t1zezZ28y+pvaD1pDas2cPe/bs6XddIODjm1++nMvOWyCjri0ky12u7zX2+q4bFuOrS7n52rN4653t2S6nS92x8FO5/SW7GQkCzutdjeHt1Tt44tmVfPbj5+HTlP7KYGQoyAvSsLeZr33/EdZnzd99+vpzmDmlmljCGUf7i2e4nlTvf9auXcuUKVMIhweyrPtRghV85PrP8ecnXuS1114fcF8DiXdsZTHf+sqHmTC+nK5oclBLhW1Lp0aTEKiqQl44SGF+mMm1lUhA101iiSTtHXH2NbXTeKCdHTv3s7Ouiff2NLGvqZ19TR00tw4t3dCnrz+HT19/HqmUKUzTrdI4jA6GbTvpd85aMpuli2bwwmuZ0MiIW7Pr+ZGShnYkCHiuO7bIkEjq/O7RV1h68nTmzaqhK9r/vfL7fTS1dPCNHzzKv3rlXGppizolNjHRwmPQwtUcD7z00kt86UtfYunSpfzyl78cdDquorKKiy6+hDffXDbkaCCA8pIQP77zSi44YwbRrk4yIoHuInFC9JyldPNxmablJhYgs52qKORFQhTmh6kdVwbScXFMpgy6ogmisSSdsRR76pvYubuJbTv3sW3XPra/t599Td1uyiVFEW78yJl85ZZLUBWFlG4ccoE2XTcZW1nEhy9ZyCvLNmaf82nAGNcBKefkWsBh4Pp0Stlstr+3j7qGVubNqu23G6cqCrZt8ZtHXubRJ5b1Wf/rPzzPOUtmsWjBJOzCqQh1uIEMo5Nnn32W9evXs2XLFj7wgQ9wySWXDLr9tR/5CE/87W+8/fbbQ9r/vNlT+b93f5ELLzwFO5VE0cBv60gr6cwISgnSwjZT7gyhRFqmM30n3cRCUrjedgIpFUxpY1qu0ITT21UUQTDoIxzyU1VRBAhOnFuLtCXJlEE0lqS1I059QzNbt+/DME0WnjCZE2bXEghofSKthovpZvA8c/EsTpwzkbdXb0+vmukJuJsqN6VnH2xpY9vWgGEIqqqwu/4AD//l1czb0e9TEYpCKmVQ39DGg48+z+yZn6Vo3PgjWn1nJBMKhQgEAqRSKb7//e9z+umnD+g3DDBp0iQuvPBCVqxYMaghS9M0PvnJm/m3f/sGNePHIRQVaVtuzVcnasv5r2vVth0/b4REWjqWEUXq7Uhbd9aZScdl1IyDbSAx3ThvBYnAkgLL6vmbCTfhg9+nUVqcT1lxAdMmVXL2kjluzBeuR97hezwKQDcMJo4vZ+miadkCLgQ+CqwfCVk7cilgBTjVFTEAeZEg4ZCf5tYuJoyvoHpMKRK73wdLCEFre4x9bhB8aXEeX7v1g+xtbOMXv30GgEf/uozrPno950wNDue8RjVXXHEFDzzwAPX19Sxfvpzvfe97/OhHPzqop9Vg4p00aRLf/e53ufrqqwkEunsyYpB99n5dasgeFS2ktJCWjm0lkEYndqodU2/HNjqRRhxppxwHFDdHrBOWqWBZsodDsnDXIThoiOVwMU2bvHCQqROrUBUno6fLJW4N6+NawP703G+a00+dwZ1fvoIX31hPdUUJk2sr+yvEDG6y8vFjS1mycBprNtVx920f5pbPXMJLz63mr08vZ29jKwnD5rF/rOTks68btBV6PzF37lxuuukm7rvvPlKpFD//+c+Jx+N88YtfZOLEiT3GxIZh8Morr/DnP/95wP2NHz+e3//+IZYsWXqYBb97RqgIoSIUP4ovD4LlkC8JSIm0k9hmElvvwNLbsY0OpN6JbcSccEzMTFFvcMbVTrd8aGchnQ687BNf3g+2LRGqQu34CspLC9h3IDPenuQW1dt6jH7Wge/qQG/eY1CdvRxY7vqZUlQQ5uff/wQ33HgBRnvMcZA3rEw61v7OTwAtbV3EkwYTx5fh0zQMy+Lz3/gdv//TK0gpKS4u4ZVXXmHu3Dm5vtfHjFgsxuWXX84LL7yQWVZVVcUll1zC5MmT8fl8JJNJ3njjDV566aUBszwKIbjqqqv405/+5CxwXTKP9WjE6XInsI0OrFQzZqLJCbs0k0hbR6T1OISic4BECDfHghSDVeSQEgryQuzYs1/e/JVf8frbW7I3/SHwvWNljR5Ip7lsgWuBTGmB+bMncOn5J2K2R4kndLeg1cCvVekaRCrLi1AUQUo3SKZMiiuKuOaDp/Cvl9fQuL+NtrZW/vnPZ5g1a+aQAyRGO5FIhPvuu48rrrgiM1e6b98+HnzwwWHtR0rJ8uXL+de//uUkkRe5iX0Rig/h96H4C9Ai4wkgsfUubKMTM96ImdyHnWp3xtxkR5z1vzsQQiiq20Xvf7ycfvJ0w2BsVZGYMXWs7SaVT4v4AuA/XTfgnJHLaKSZ6TDBYMDHhWfPo7SqOOOIMVTPIN0wSaSMTKZEM57klAVTmD0tky+eP/7xjxw4cCCHl3rsOfHEE/nlL3/J9OlDc17J03ycXlnN/JKeuav27NnDTTfdxNNPP33QfcTjcVavXj2s8jCHhnDFPI5g+cnkVV9EuOpMfIXTUQIlzoMgzYH71dIJahHIAes6iXRqYNMmEgwyqaZC9OqVnuBmsMwpuRTwxen/lBbns+TkaWDZh+TSl+2intJNiovymDqpKrNi9erVPPvsszm81NzwgQ98gMcee4ybb76ZcePGZe5VWNMo9gcp8gcYF8njlLIqvjRrAfctPIM75y1icn7PcL3GxsZM7eEdO3YQi8UySfV0XccwDOrq6rjnnnu46KKLeOihhw47QGJYKD60vBrCVacTHnuuDJacYAstXzrhlP2dh3QNXnY6xemAu5ZSgiKoqS4Vhfmh7A3NISZgOarkqgsdATJR2YUFIWqqy7CSh1fhUQhnGkHxacyeMc4JmXODue+//36uvPLKQ0rhMpqZP38+v/3tb7n++ut55JFHCGs+rqydwkmlVcRMg7HhCJPyCyn0B0haFlMLivnG3FO4b/0KtnV2O0k0Njbymc98hkWLFrFgwQIikQiKomTm6N955x1efNGpPvH444/z+c9/PifXq/qLhFp2EmpojEy2viusWL0jYsXXf4ssB69LKd2uXWV5sV2QH6K9M55u9CQwsA/qMSJXAj4pPf4VQjB3Zg3V48qJRxMDvQ2HXP3Ttp2ph5PnT6KqvIgdMcfvfPny5bz11luce+65Obrk3FFfX8/rrzvukoU+P5eNm8jJ5VV06jqWlCQsk5ZkwglAEAqnVFTxrXmn8p+bV7O8eV+PfS1fvpzly5cPerzq6upjYQQdDKFFxhL2F8hU6zphdGzGtpOuK+1AxWUHQdqEgn6nmkU3QTdLx/Ls4gTHmlx1oc9ybwDhkJ+li2bgC/owrX7ru9rDS+Ys0BMpZk8dx9RJYzJLLcvikUceydHl5g4pJevXr2f3bqcG77TiEuZUVWMF/KjhEP5wmLy8PPJCIVShYto2rYkEc4rL+fYJi7lxyixq8gpQh2jA8vv93HTTTYeV4eMIIRRfnghVnEqw8jRUf5Fj5BrmEE06GRQpK8lTigrDvS9qen9ehMeSXLXA89L/CYcCzJ85HgxroLf2kOYGMhsLJxa1oCSfs06dwStvbsyEq73wwgs0NzcPmGT8/YhlWaxcuRIAv6pyRs0kZlSPpy0RzwTBOnGwJvFUilgySWc8SqeeoDIU5tYZC5hWWMJ33l2GdZBnf+7cuXzmM5/hzDPPzPVldyME/sLpKIFiUs2rMKO7naHrMCzqtpSEQwFCgT7BMPm5dvHLhYAjQCYot6ggQs24ckzdGOheDPsGpbvRixdOo6Qoj737nGwQDQ0NvPvuu5x//vk5uOzcYJomq1Y5KV5Dmo/x+cUIRcGSEiUdeAD4NB9Fmp+CcISivDwamg8QT6UI+/y0JBOYWcagj370o1x66aWsWrWKtrY2wuEwc+fOZfHixcybN++Qz/VoogUrUKpOJ7lfoHfucLrTQxKxcDyyIkFKivvYTya6DkkHz5J/tK4rB8escJ3BAcG0yVWMrSohmdSPaOFpK2VQU11GYUGIve4wzrIsli9fflwJ2LZtGhudoH0F8CkCbJmZRyc9PnG7lkII8gIhKopKaGhu4kAizpP1O50i6m5x7rvvvpvp06dz1VVXkUql8Pl8hEKhQz3FY4aiRQiWn4o0ExjxBoQS4GAPnRBOrqxIJOAGVfRghusKnLPKDbkYqOSnx7+qqjCppjwz/j1SCCFIpQzGVBYxa9q4zG8kpcx0J48n0lM6ppTEzcEt/VJKTNsiPxSipqSc5xt3s7PT8TfPz8/n1ltvzcwtBwIBCgoKRoV40yj+QoJVZ6CGxgw+V5x9T2yn7pPf16e9K8wuDZST68nBMQvTxxWCPnGkRwrDtAhEgpx28jTCoW47w6pVqwatQft+JB2AEDN0Vuyrx7RM/Io68KMrIN/n5622/Ty4bQOW230+7bTTuOmmm3J9OYeNGighVHUawl8wwDxxT2w3ZXFJcR5qT+NcKteB/bkQ8NhuAQsCGcPAkS37KaUEy3aSumcJuLm5mZdffjkHl50bVFWltrYW3AfxzYY61jbvpygY6veWK0JQ6Avw8t7dfOP1F2jXnXn00tJSbrrpplHV2g6GFqwkUDTXGQcfRMS2bYMqmD2tmrLSHjWpRa6rNeRCwOPTHiyqIihwi0gfcYQgEU+xYPYEZk3vdqs0TZNt27bl4LJzg6ZpLFrUnZN8a3sL337zBba1NVMaDOJXFHzuJ+TzoQrBn7du4PMvPMWO9pbM311wwQVcddVVub6cI4q/aAZqoGxoz5+UFBXlEw71CE01cl0zKRdGrEyiJiEEQf/R8UYTrp90UUkeZy2eyVsrt5LSTSzLYt26ddi2PRLmKo86qqpy/vnnU1VVxb59+5BS8sx72+jSdW5fuIRZJeVOLK0tea+rncc2r+Mv2zfSmVWraOrUqdx1113vu2AQoWj48mqxks0H9xUSAt19frKX5rq6SU4zcgghyIuEjnTvOYOUEkyLJadMJxQKkNJNbNvm2WefZc2aNSxYsCCXl3/MmDhxIp///Oe56667nPsCvLZ3Nyv272VMJJ+gG4bZEO0ibvaMv66qquKee+4ZtMbvaEbLq4X2DWANPJSV0klGUFQQ7u2NZafLAuWKXLw9QulXXTrv0dHDCTOcPXUc47MKeqVSqR4FsN7v+P1+rr32WiZMmNBjedI0ea+jjU0tB9je3tpHvGPHjuUXv/gFH/nIR3J9CUcNNVCMFqpEHiz4QoJt9YlPbwE6cnn+uRBwptWXUh40/+/hIAToukVlRREL5k7MFB20bZuOjpze92POlClTuP/++1m6dOmgxcFw44lPPfVUfve733H11Vfn+tSPOr68moPOBwOoPrX3sCviOnLkjFx0oTNeK0KkW+Cj1IcGLGmj+lVmTatGVZ1Mlrqus3VrzrOhHFOEEFxwwQUsXryYxx57jL///e9s3bqV1tZWEgknqCY/P58pU6bw4Q9/mGuuuYYxY8Yc9nFHA77QGBTV71RzHAhVEI3rJFM9spcUpH0ackUuBJyZPddUlTEVRUfHCp1GgpUyOfmEyWiqimFYmKaZce4/3sjPz+eWW27hlltuYf369Wzbto2WlhaklFRXV3PaaacNqdTn+wotguIvworvB6Wvoc7J1KOwd28zbe2x7FW2W986d6eeg2N2V9QTOA7iR1G/IDAti/FjS8iLBDOBDQ0NDei63qOa+/HGnDlzmDPn+MkVNhBCKKihKsz4vn7t0JqmYSRSvLPuPTq7eoQAt+Q6M2XO51GsIXjCHA7pIP/CgjCTJ3RXgq+rq8vUkX0/c0wzY4xitEg1QulrUJWA36fR2Rln6859vVdvyrUnVi5a4B7t7bEI/DZNm+LCPGZMGctbq7aDlKRSKRobG5k1a1YObsHRJxqN8thjj/HKK69QWFjIlClTmDhxIrW1tdTW1h5/3eSDoPqLUZQgth3vOR8sJZpPpaU9Slt7tPefbTyuu9C4uXePdkilRKKqgjEVRSjpvIVuVfr3K52dnXzve9/LZKVUFIXy8nLKy8upqKhg/PjxTJ48malTpzJlyhRqamqoqMipX35OUVQ/wh9BxqOIrHGwEAKhCJpbumjvWylz+/Eo4EwLbJoW9Y0toBz9Vti2JWPHFGdKOVuW9b6eSiorK+Ob3/wmv/nNb1i5ciW2bfcopI0r6uLi4synurqa008/nZtvvvn4a6GFiuorwKSxb6466ZQc7Sdirv2oTqEMgZy2wIZpsWvPgSHNwR0u0pZMGFeGogps03HmqKury8HlHxv8fj+f+tSnuOiii3jzzTf5yU9+kgnsT2PbNi0tLbS0OD7PK1as4Omnn6a+vp577733ODPwCdRINaKj/+nFeDxJqq/PQs59S3PaAttSkjzMKnJDxZaSvEgIVVUwTYtkMsmuXbtycPnHDkVRMmPeOXPmcPPNNw8YD11UVEQwGCQYDDJp0qT39fBiwPvlK3SzdHQP6xS3tvD+lk46Ont0oS2gLdfnnAsBN2Wy+El3DHxUG2CReWeoisg09pZlHVdRSXPnzuWhhx7iq1/9Ks8991yPdQsWLODee+9l+vTpCCEoLy9H03JduPLYY+ut7qPZfe2qqmAYJlt3NBCL9zA4HwAacn3OufiVtqZjKG3bzppXO7rd6HQLXFQQZl/SGfvu3r2blpYWSktLc3Abjj2zZ8/m0Ucf5bXXXmP9+vWkUikmT57M2WefTU1NTa5TweYYibRSPWKSpJSEgn627tzHq8s29/Y32p7rOWByJOD96QgO25aOgI/qg+OWs7QlkUiAosI89jU5Ao7H4zQ1NR03AsYNzP/Qhz7E5ZdfjnSr/B3fwk0jnBpM2XU+hECoClvfa2TLjj6N7fbjObG7wG0VOzrjSMNEUcQhlVUZKraU5IeDFBdkwpExDINYLHZY+x2teMLti5QmbtlCSI9/keyuO0BLW5854E0jQcC5sFQo2ceNxZOkUjrqUZ5KkrYkLy9ETXV5Zpmu6xkLrMfxjgRT7+GXr2kqqaTBzt1NvTe2gNVuRo6ckgsBJ7Pdz6Tri3q0p5Ik4FMVamu6k7rruk57e84ygnqMMOysoH4pwefTaNzfzpqNfQJf9rvG2JyTCwE3AnvTX/Y2trK7vhl/wHdUu9C4VeZKi7uTktm2nQml8/CwzXhGEqrqDDGWvbON5av6+MzvGQkGLHIk4BiwJf1l7742Xl++GV/w6DoNSHdMU1zYnV0/mUwedylmPfrHSrVhpZoz9YI1TSWR0ln+7g5i8T556/6V3QjlklzN1r+TNg8nkzqbttQfG28sKaksK0RVnctOJpPU1+e0wLrHCEBKG71tA7YZBSGQroC7uhJs2tbn+WgHXsx1Nso0uRLwu+n/mJbNph17ScUS+HwHNYofVh/btqG4MEJenpNEQUpJQ0PO5+I9coydasPo2oVw5aAIUBR4b08Tazb0Gf8+mf385ppcCXhjthFg5+4D1De0Egr6DzYOPqxmWkqbUMhPONid6D0ez1ldKo8RghmrQ9qpTLEzTVUxDZvnXl3H/gM9Al5agEeArlyfc5pcCXgfkHm1ReMpWlq7UHxH1zdcSommqQR8RzMTpseowjYxE409Fqmqws49Tfz1H2/33vqfwOu5PuVsciVg250IB6AzmmDjtr2gqkc7PRZFBRGKCrvLg3jODMc3pt6GlWzL2GAU11/+lTc3sWFLj/FvEvhHLkuJ9kcuBfx8+ktnZ5wXX1uP1E38/iMt4p4CDQW1HrmovZQzxzdWbC/S7p7/VRWVaDzF86+t7/1svOEar0YUuYwZe9edUkJKyYo1O9iwaTfhSOioxkjbdjoLiIOu5zShgkcOkVYKM1oP0nJ8oYVA1QSvL9/C0y/0sVM95TpwjChyKeA9QCaeb+fuJp55cQ1CVY5ILKrsDmPos87KEvBRdR7xGNGYsXpMvSXTS1NVlc6uJA888mIme6nLeuClXJ9vf+RSwEkgE5iq6yZvrNhCtCNGIOAbTjdaDtxk910spcS2urtGx13qGA8ApJ0i1bEVbB2EgnCnjv7y1Fs888Lq3pv/HViX63Puj1wK2HBvTEZN23btY9vOfQSC/qF2o6W7H7vPckkKhEU/K7LHNkH/8Zd5wkOit23GTDZmWl+/T2PHrv38+D//jtVz7LsSeLifZ2xEkOundz2wIv3lvd0HeP3tLaAqbijXQRFubZp+0umjIBGy9+ayZxc61tEI1oEc3waPY4mZPIDesQlhGW7r6zxrDzz8Iu/t6fEsRIHfZM+YjDRyLeAY8Lf0l0RS55VlG+lq6yIY9B2OKUsI8PW9PokQZFwpATram9BbN+a60LrHsUJa6G3rsfUOEM57PxIK8PSLq3noTy/32NId4j2c61MejFwLWAeezvZsWb5qO8vf3YE/HDj8mkluOqzsvUjpVGpIY1lgdu1ExjaC7Yn4/Y7esRWjaxcSBYlCKBSgvrGF7//0cTqjPXJe7Qd+PtLmfXuTawHjpib5Y/pLfWMrz72yFitl4j9SidWyFGxLiWF0CzWSF0EVkDqwilT7xlyn+fU4itjJFlJt65G2DkLF79NQBPz4P5/i3fV9MpT+GXgl1+d8MEaCgOPAo9npSV5+YyM7dzURDPsPrxF2M5Slh9MCp/XVDSeRgqIIJtaU4Q+FMYwkyZZ3MKJ7cn0/PI4C0jZItq3FSh0ANHw+lXBxhD8+/gYPPfZq782fAr6f63MeCiNBwABrgGfTX9ZvqeOd9e+haNohF21wErb18sMSTp2kaMzpKvn9GuPHlCACGjY+pJkg2fQ2RvT4LD36/kWid2xG79yORMPn9xOJBHjiiWXcdd9fiCV6dJ3fBr4yUjJuHIyRIuB2txW2AeIJndff3kIynsTvH9acMLjj3IF8nKW0Mxn2VUUhFAiAIpA2CDWAlWomvu8VUgdWIq2cFp7zOEKYsXpSLWuQlonPFyBSkseTz7zDrf/2O3bX97A6H3DFuyPX5zxURoqAcYP8N6e/PPnPFazZsLuH3/LhIhAYppVxpQz4fZSXFYDd7Qsi1IDTEjevIHngLWe85DFqsfV2kgdWYBtdqFqAvKIIr760hju+9wf27mvtvfn/A5bl+pyHw0gScB2QsePXNbTy5L/ewTAsAn5tWK3wYFPIqZSBYTgtcCQSYPb0ccheNW+E4gdFI9W+mcT+N91cSR6jDduMkWhahhnfD8JHQUkBG9bv4o7vPcLW9/rU+n0Y+I9cn/NwGUkCTrkCzqTq/O8/v8raTXsIBHxHKOOOJBjwZzJ/zJ9Vy8xp1SRjqV5dbglCRQgNvWMLiX2v9MhY6DHykWacZNMyjK7dSEWjqDiPA/vbuPPex3h7dZ8e8qPAHSMpUH+ojCQB43aj30l/qW9s5Q9/fZ14IoXvEIL9pez+AFi2TVVFEVdcfDLjxpRw640X4Pf7SBkDpPcVCkKoGNHdpJrfRto5TwPsMQRsM0GiaRlG504QKoUFEdpao9zxvT/wj+f6RBn9C/jaSIw0GgpioGicHAW6K8CXgJ+mF5QU5/P0I1/jxDkTSCT1YXWls7aVKApCIhQFmlu7aGruYNa0aqBneOHAO7Lx508hOOYMhMh5VUmPAbCNqNNtju5CApFwmJRu8q0f/g//8fvnMM0ezjqrgOtHsqtkmoF0OtJaYNt1rXwtvaC1rYu///MdTNNGVYcnHCGyPjjJ423bpqK0gHmzapByCOJN7wgFPboLKz4qX9THBXaqncT+VzC7doFQCIfCdHUl+Po9j/BfDz/fW7yNwNdHg3gHY6QJGDdX1n9np+28/+EXWLX2PTRVOdSxsECawgncBtOy0HVzeLHAQoC0kebxWUtppGOlWojtexUzthehqoRDQdo7onzzh49x/x9eQO9pqJTAt4AXcn3eh8tIFLB0U3dm3Nia27q4/w8vkEwZKCJXpywRqh8lWJzr++PRCzu1n9T+10A/gObzE/D7WLNxN5/48n/y60de6OH77lbGvNc1XI16v9mRKGBcL5jfZldA/9OTb7Fq3S5U7SDd6B795qzPYSJtCy1/Mkqg7LD35XEESTWQ2v8aRuIAEkEyZfLo429w9ad+xj9fWtu7l9UJ/MD9vC9q6ozkMux/AS4GPg6oKd3g78++w2knT0WIYZYiPcyoJikN1GA5obIFR7kMucdQ0ZMx2ps2s+LVx1m+ah0N+7qQts2B9ijPPP8uptVv/P0fgPtGeoTRcBjJArbdG34eMA7XRzrthNEv/bW0hxuSKG2E0AiWnYhQQ4e3L4/DxjJ1Vq18i2ee+jMvPP8sy97ZymCPRC8uc0NYH3Yt0KOekSxggIbsKnABn5bxc+63BU4vO4JTYFIaBItPwJc3Idf34rjHMuI89OCvufNb32F/c8eh7KLG9XX+EHA38KfsUrejkZEu4HwgUwdl/uxafD6tt0WxL0cq06RtoPiL8BfPyfV9OO6JR1t54D9/xF3f+ymdsb4ONX6/RmFeCClAFQqKIiQgkimD9s547xf+BNfGMtvtUo/aKu8jXcCVQKYe6KITp7hj0EEEmm58D1vDEokkWDwHxZd3uDvzOAwaG+r5wfe+wa8feASj19B2/qxapk2u4uT5k5kwvhyJRFNVVCc1sezoiosdu/azYeteNm6tZ9O2TFVQzfXAKgc+63atRx0jXcDTgJL0l+LCiJNDdkj1z47A2FeL4MurPdyaah6HQWd7M1/+0q38+a9P9lg+bkwpn77+bK645BQmjC8nLy8EmuImcRAgZeZdL02TrmiSbbv28z+Pv8GDj75Ma3s0vaubgDfd5HWjjpEu4Ao36yQBvw9NUw+e3POIdJ8F0rZQA2GE4hVCyxWWGeW/fvF/+4h3+uSx/OTu67jsooUgQU/qRLviPbKNZqOqCqGgj5MWTObE2bWctnAqd/34L6zfXJfe5B43BnhEJm8fjJE6D5wm03cdN7aE4sIItjw26XmltFADpZnMhR7HGLOJd175Az/+6f09FtdUl/Gze27gsktPIRlL0t7WRTyhu+Ltv6dkWTaxuE57Sye6YXLFh07jdz/7LNMmjUlvUuV2p0ddV2ukCziY/k/tuDJKS/Kxj0kpFOcYaqAcIbwW+FhjdG4lWvcCD/7uj7S0d0/ZlpUU8P2vX81F5y4g3hEjmTIQQmRNOgz8bDj+PIJEUifaFmXhktl89obzCAX96U3OAObm+tqHy0gXcOb8CvPDBALHRkxSWqi+EGqw7IhOSXkMjrRNkk3L0FuWs2vXLv7+/PrMumDQzxc/eSHXXnMGiXgSXbd6RcyJITWgQggMw0Jvi/KxDy9hxtTq9KoQcGqu78FwGekCzvwix0q8IMC2EFoeis9z3DiWJFveIdW+AQWL3fXtNOzPeNIyY8pYPvahxfgUhVTK6Oe9KodsuFQUQTyepLK6jKUnT0fTMjI4Odf3YLiMdCNW5mcSijhmAxQpTdRQFUINHoG9eQwFo3MHRoeTEk0oKvFEqsf6spJ8KsoLMZOG09b2ehjSDj7qEMvySCkhFGBcdQmaqmKatgBOcVviUeMnPdIFnHmlSstGIhDHJIBEomh53vj3GCHNGHrbOqTlJFxH4sw4ZNHc0kn9/nZmzK4laFlIV6Qik/5bYNsW+w50kkikEIroOyPhTC8hhHDiy/e2sG1nY3YxsxKg2BPwkSPjcqUqCiKgEYAe5UGPPBKpBQlECrzx77EiVY8mutACfhAKmqYyaUIFFWUFNDU7nrSbtzdwx91/YOEJkxwXG4k7yStBCBRFcKC5izdXbKUzmhg0o4wiBLpp0t4RJxpNZBtG7eycbKOBwQQ8O9sL6hhju2/B8vQC3TB5Z8UWbAlyKFk0DvnIJkLxEazYihrqIJ0EwOMoITSSzW9hRutBKE5bqggM3WDG1OqMgJMpg6dffJenX3z3sA85CBKYD3SMsCmlGLCh39s3SE6staPRrO7x/kG8HyLujwzrpJTz+lsxmBV6VHUlPN5/eOLNMKAWBxNwAA8Pj5HAgFocbAxsuonlFO9l6OGRE4RrDxowfnYwAS9ziz1pXvl6D4+coLri3T7QBmJYuaU8PDxGFCPdldLDw2MQPAF7eIxiPAF7eIxiPAF7eIxiPAF7eIxiPAF7eIxiPAF7eIxiPAF7eIxiPAF7eIxiPAF7eIxiPAF7eIxiPAF7eIxiPAF7eIxiPAF7eIxiPAF7eIxiPAF7eIxiPAF7eIxiPAF7eIxiPAF7eIxiPAF7eIxiPAF7eIxiPAF7eIxiPAF7eIxiPAF7eIxiPAF7eIxiPAF7eIxiPAF7eIxiPAF7eIxiPAF7eIxiPAF7eIxiPAF7eIxiPAF7eIxiPAF7eIxiPAF7eIxiPAF7eIxiPAF7eIxiPAF7eIxi/n9h7Jkf/wt0aAAAABl0RVh0U29mdHdhcmUAQWRvYmUgSW1hZ2VSZWFkeXHJZTwAAAAASUVORK5CYII=;fontSize=24;" parent="1" vertex="1">
          <mxGeometry x="150" y="-50" width="140" height="140" as="geometry" />
        </mxCell>
        <mxCell id="Nn_NQeG1ST4IdmQyPQJt-4" value="" style="fontColor=#0066CC;verticalAlign=top;verticalLabelPosition=bottom;labelPosition=center;align=center;html=1;outlineConnect=0;fillColor=#CCCCCC;strokeColor=#6881B3;gradientColor=none;gradientDirection=north;strokeWidth=2;shape=mxgraph.networks.server;rounded=1;shadow=0;dashed=1;labelBackgroundColor=none;sketch=0;fontSize=24;" parent="1" vertex="1">
          <mxGeometry x="1340" y="160" width="90" height="100" as="geometry" />
        </mxCell>
        <mxCell id="Nn_NQeG1ST4IdmQyPQJt-5" value="1.GET&amp;nbsp;" style="shape=flexArrow;endArrow=classic;html=1;strokeColor=#788AA3;fillColor=#B2C9AB;fontSize=24;fontColor=#000000;" parent="1" edge="1">
          <mxGeometry width="50" height="50" relative="1" as="geometry">
            <mxPoint x="350" y="10" as="sourcePoint" />
            <mxPoint x="649" y="80" as="targetPoint" />
          </mxGeometry>
        </mxCell>
        <mxCell id="Nn_NQeG1ST4IdmQyPQJt-7" value="来一份&lt;span style=&quot;background-color: rgb(255, 255, 255); font-size: 24px;&quot;&gt;《短腿猫猫》！&lt;/span&gt;" style="shape=callout;whiteSpace=wrap;html=1;perimeter=calloutPerimeter;rounded=1;shadow=0;dashed=1;labelBackgroundColor=none;sketch=0;strokeWidth=2;fontSize=24;" parent="1" vertex="1">
          <mxGeometry x="70" y="-140" width="250" height="100" as="geometry" />
        </mxCell>
        <mxCell id="Nn_NQeG1ST4IdmQyPQJt-9" value="收到，转发" style="shape=callout;whiteSpace=wrap;html=1;perimeter=calloutPerimeter;rounded=1;shadow=0;dashed=1;labelBackgroundColor=none;sketch=0;strokeWidth=2;fontSize=24;" parent="1" vertex="1">
          <mxGeometry x="720" y="-60" width="170" height="70" as="geometry" />
        </mxCell>
        <mxCell id="Nn_NQeG1ST4IdmQyPQJt-10" value="" style="shape=singleArrow;direction=south;whiteSpace=wrap;html=1;rounded=1;shadow=0;dashed=1;labelBackgroundColor=none;sketch=0;strokeColor=#82B366;strokeWidth=2;fillColor=#B2C9AB;fontSize=24;fontColor=#000000;arrowWidth=0.36666666666666664;arrowSize=0.015841584158415842;" parent="1" vertex="1">
          <mxGeometry x="656.93" y="-70" width="50.76" height="990" as="geometry" />
        </mxCell>
        <mxCell id="Nn_NQeG1ST4IdmQyPQJt-20" value="" style="shape=image;verticalLabelPosition=bottom;labelBackgroundColor=#ffffff;verticalAlign=top;aspect=fixed;imageAspect=0;image=data:image/jpeg,/9j/4AAQSkZJRgABAQAAAQABAAD/2wBDAAgGBgcGBQgHBwcJCQgKDBQNDAsLDBkSEw8UHRofHh0aHBwgJC4nICIsIxwcKDcpLDAxNDQ0Hyc5PTgyPC4zNDL/2wBDAQkJCQwLDBgNDRgyIRwhMjIyMjIyMjIyMjIyMjIyMjIyMjIyMjIyMjIyMjIyMjIyMjIyMjIyMjIyMjIyMjIyMjL/wAARCAEsASwDASIAAhEBAxEB/8QAHwAAAQUBAQEBAQEAAAAAAAAAAAECAwQFBgcICQoL/8QAtRAAAgEDAwIEAwUFBAQAAAF9AQIDAAQRBRIhMUEGE1FhByJxFDKBkaEII0KxwRVS0fAkM2JyggkKFhcYGRolJicoKSo0NTY3ODk6Q0RFRkdISUpTVFVWV1hZWmNkZWZnaGlqc3R1dnd4eXqDhIWGh4iJipKTlJWWl5iZmqKjpKWmp6ipqrKztLW2t7i5usLDxMXGx8jJytLT1NXW19jZ2uHi4+Tl5ufo6erx8vP09fb3+Pn6/8QAHwEAAwEBAQEBAQEBAQAAAAAAAAECAwQFBgcICQoL/8QAtREAAgECBAQDBAcFBAQAAQJ3AAECAxEEBSExBhJBUQdhcRMiMoEIFEKRobHBCSMzUvAVYnLRChYkNOEl8RcYGRomJygpKjU2Nzg5OkNERUZHSElKU1RVVldYWVpjZGVmZ2hpanN0dXZ3eHl6goOEhYaHiImKkpOUlZaXmJmaoqOkpaanqKmqsrO0tba3uLm6wsPExcbHyMnK0tPU1dbX2Nna4uPk5ebn6Onq8vP09fb3+Pn6/9oADAMBAAIRAxEAPwD3+iiigAooooAKKKKACiiigAooooAKKKKACiiigAooooAKKKKACiiigAooooAKKKKACimySJEheRgqjqScCoLfULO6dlguYpGXqFYGgCzRRRQAUUUUAFFFFABRRRQAUUUUAFFFFABRRRQAUUUUAFFFFABRRRQBT1XU7bR9LudQu3CQW8ZdyfQV81+IPj94ivbmRNKSGztwxCnbuYj61vfH7xwxdPC9jMNmA91tPOeoWoPhd8MrJtKTWdctRNJOMwwyDhV9SKzq1VTjdlRi5OyOc0r49eLrGZTdNb3kY4KyJg/mDXqHhr4++H9VZINVifTpiPvMdyZ+vajW/hZ4W1pDts1tZccSW/y4/DpXlfiX4LaxpMMlzpsgvoVPCKPnx9Kzhiqc/IqVKSPqiyv7TUrVLmyuI54XGVdGyDVivjDwl498QeA9QKW8riENia0l+6fXg9DX1j4T8V6d4u0WG/sZkZmUGSIH5o27giugzN6iiigAopCQoySAPeojd24ODPHn/eFAE1FRfarc/wDLaP8A76FPWRH+66t9DQA6iijpQAV5h8Q/jFpnhNJLHTtl7qmMbQfkj+v+FYvxV+MUOjxzaJoEqy3zApNOvIi9h714n4S8Gat421JvJ3CENme5fov+JpSkoq7Gk3oifVvHPjDxldeU95cSbj8sFuCoH5VV+y+MfDpW+KajahCG8wk4H1r6S8M+EdI8J6ekFnCnmgfPcMBvY/WtSeWyvYZLW42yRSDayuMhga4JY9KVktDdUG0ef/DL42Sarew6L4iCi4k+WK6XgMfRhXuVfFvjrQz4Q8bTQ2uUiVxNbn0Gcj+VfWXgfWH13wZpeoykGWWAbyO5HB/lXfGSkk0YNWdjoKKKKYgooooAKKKKACiiigAooooAKKKKACiiigAooooAKoa3qaaNol5qMgylvE0hH0q/Xnvxo1pNI+HV6m7El3iBB6560AfOWjwy+PviQjXXH2y5Msg64XOSPy4r6WupVtII7OAbVRQvHYCvI/gToKNJe67MmSn7qIn9TXp87+ZO7eprxcyrO/Kjtw0NLsRZZEOVcj8av2uonISbv0as2ivJjUlF6HU4pnMfET4X2viOOTU9MCwaiq5ZQPll/wADXj/gzxfqfw88SmdY2KqTHcWznG4d/wAa+ntOZ2gO7OAeCa84+InwpbxHevq2kyJHeMPnhbgOfX617uExWiU9jhq0tdDU1/8AaD0WzsY/7ItZLu7dASG+VEPoT3rzLUvjX421iQpazi2UnhbZDn866Hwx8DcET+Ibj6W8J/ma9T0zwpoOjqostLtoyoxuKBm/M10TxcI6LUzjSb3PnnzviL4gctv1SbdwckqKkHgP4gOQxt7vJ9Zv/r19NgBRhQAPQDFGTWDxsuiNPYrufM58A/EFRkRXXHpN/wDXqGbQ/iJo+JDHqKD1STP9a+ns0ufehY2fYPYo+Y4vG3xE0d1ne71AKBgCVCVqe6+NnjW5tjA17HHkFWZEwSD+NfSEsEM6FJoY5FP8LoCK57UPAHhfU1In0iBSf4ohsP6VpHGr7SJdHsz5d0m3j1bXYIr66EMc0uZpnPQE8mvq3Q7fRNG0WODRzCbVRwY2BLH1PvXnet/AnT58vpF89u3aOX5l/OvN9U8P+MPBE7jN3HAjcSwsTGff0oquOIVoSswjenuj6JuLp7h8k4XsKgrxvw58W7m3KW+txCaPp5yDDD6+teq6XrOn61b+fp90kyd9p5H1FeHiMNVpO818ztp1IyXunmfxwRZLvSLnaA7RujH1xjH8zXs3wXZ2+GGl7+o3gfTea8a+NZH/ABKBjnEn/stew/BMn/hV+m59ZP8A0M19Bgm3Qi2cFZWqM9DooorqMgooooAKKKKACiiigAooooAKKKKACiiigAooooAK8A/aR1M/8SfTApA+eUnPXoB/Kvf6+Z/2i7lZPFthAM7o7bJ/EmgDuvhZpX9lfD61yQWuQZj+PStVvvH60vgYE+BNIUqVP2ZRj8KHUiVlxzmvmsa253PSo6IaAScDrWnaaeMB5hz2Wn2NmI1Ekg+c9B6VeqKVH7Uhyn0QgAAwBgUtFFdRmFFFFABRSAYpaACiiigAooooAKbJGk0ZjlRXQ8FWGQadRQB594s+EuieIEMtiiafd/3o1+VvqK8c1jw54m+HGpR3AdlQn5J4SSjexr6kqC7sra/t2t7uCOeJuqOuRW9PESiuWWqM5U09VufLPjHxi3iu303zIfLmt0YSHsxOOR+VfT3wms5LL4a6RHIfmaMv+BYkV438SvhSlnCdW8O27eUuTPbjnaPUV0XwW+J/2hYfC+rsiPEu21lJxkD+E+9ejQcORKGxz1Obm9493oo60VsQFFFFABRRRQAUUUUAFFFFABRRRQAUUUUAFFFFABXzZ+0dCF8SaZMEALW5Bb1wTX0nXzZ+0RrNne69p+mQEPPaoTKR2LdB+lAHf/DK4a4+H+mMzElU2c+3FdR9li87zdvzVzfw4tJbPwFpcUy7XMe/Hsea6oda8Oqk5v1O6N7BRXDaR4xvpviVqXhq/hVYlG62Ydcbc81zOt/EbWfB/j27g1W2ebSJD+6UDGF9VNWqMm7L1Jc0tT1+iuQ8KfEbSPGGoS2enw3CSRpvJlUAfzrrsVEouLsyk09haKKAMVIwPSiiigAoorI03xTo2rajcafZXqSXVucSR9D+FNJvYVzXoopaQxKKKKACiiigBGUOpVhlSMEHuK+e/ip4CPhq9XXdJDraTPlwv/LJ/wDCvoWq2oafbarYTWV5GJIJlKsp961o1XTlciceZGL8HfHY8W+Gxa3T51GyUJJk8uvZq9Jr5LtHu/hH8T4yzM1kWwSP+WkR/wAODX1ZYX0GpWEF5bOHhmQOjD0NexFqSujkatoWKKKKYgooooAKKKKACiiigAooooAKKKKACiiigDmvHXimHwh4Vu9TkZfNC7YUJ+856f4/hXzb4E8KXfxC8S3Or6pK5tkl8yZz/Gx/hFa/xi8QzeMPHdv4e09t0NtJ5K7TkM5OCfwr2HwtoEHhrw9a6bAoBRcyMB95j1Nc2JrckbLdmlOHM9TXjjSKJI41CogCqB2AqK8uorGymu5iRFChdsegqeorm3iu7aW3mXdFKpVh6g15XXU6jxrwjrR8U/FK98UGIW2mW0JQySHAAC4GT61peLfid4PuJDZyaYNY2H7+0YH0NdB4n8BpceCToHh5Y7QeYGOTjcM85NaHhXwLpHhjSo7dLaKa4K/vp3XJc/4V1OdN+98kjNRlsZnw1vvD2r2Vzf6NoyafIreXJgcn8fxru6gtbO2sozHawRwoTkrGuATVbW9as9A0mfUb59sMQzgdWPYCsJPnloWtFqaFFeA3HxY8Ya3fztoFiwtl4VUhLkD3IoTxZ8VX+ZbG6IPT/RjW6wdRke2ie/UYrw2O9+MdwoKWlwAf9lR/Wqup6j8WdEtDqV+lxHbQnLscED6gGn9Tn3F7aJ75XkGseFP+Ed+KuiX+ixzBL2RjOBkqvr+ddX4E8dw+LNFE0uyO9i+WaMH9RXTm9iyCcZHQ+lYpypSaZpZTV0T3srwWVxLEu50jZlHqQK5n4d61qeveG2u9VXEwnZFO3GVFb5v4z3FNS8gjXagVV9F4qF8LViuV3L9BIAySAPes+TU4IY2kkkVUUZYk9BXhd9qniD4peOTpuizyQ2iEhCGIVUH8TYrSlRlUdiJy5Nz397mBPvzxr9WFVpNa0uLPmajarjrmQV5cvwE1SeQLN4piZu4UkmrsX7OSl83HiGUj/Zj/APr10rBd2Ze28juJfF/h2EEvrNmMdf3orSsr611G2W5s7iOeFujxtkV5/wD8M46Z5LA61cmQ9D5fH864d4PE3wW8QAXANzpNw2AQfkcf0aiWCsvdeo1W11Ou+Nvh3+0fD0WrRJmWybD4HJQ//XxVj9n7xiLzTJvDd1KWntyZINx6p3A+h/nXa29xp/irw4JE/eWd7DjBHYivnqaHUvhR8Q4rpE3Ro+6M/wAMkZPSqwlTTke6Jqx15kfYFFUdG1OHWdHtNRgIMdxGsgwc4yOlXq7TEKKKKACiiigAooooAKKKKACiiigArnfHPiBfDHg/UNT6vHGRGPVj0roq8Y/aJ1gW3hey0tWIe6l3MB/dWgDg/gvobav4ku9eux5gt8lS3d27/lmvfa88+DGnmy8CpM6FWuJC/Pcdq9DryMRPmqM66atEKKKKwNApjyqg5NKxwKwtVvGhU4ppXGldmjLqEceea8d+Nmsm4stPso5GCs5d1B4Nb19q8u48muC8c282q2KToC0kBzgeldVCCjNNlVaT9m7F6x+Ktp4M0GDSfC2mwtLsDXF3OuS7+wr0b4XfGI+K79dG1iGOG/YExSx8LJjtj1r5hIIOCOa1/C+qronibTtScuEt51kfZ1wDzXpnmn3RUF5aQX9pLa3MSywyqVdGGQQa8fuf2i/D8QxBp17KcdSFA/nWVe/tIwNbOtnokolIIUyMMA/gaAOHtIk8JfFbUtOsZW+zJJJGBntzgV3R19z/ABV5ToRvNY8Q3GtXOS0js7ue7NW1rus/2Taq6qGlc4UH+dclaKlOyPRw9o0uaR3P9vP/AHqP7ek/vV4+/jHUWHyiNfwqP/hLtU/56J/3yKn6sx/WqR6lr+uSvoF6qscmJhx9K850LxbN4d8M6hbacxhv7yRVadfvLGMkgenOKveH/EE2pzva3QUkrkEDrWdq3hW4Sd5rJQ8Tc7M8rWtK1NuLMq8faxU6exlJ4h1mOcTLql4JAc7vObr+dfSHwL8bah4m0q8sNUnM9zaEFJG6lD6181nR9QH/AC6S/wDfNdR4P1vxR4KuLibSrXEk6bGLoDxnNb8y7nJyS7H2TXkv7QawHwAm9lEouF8sHqeRnFefj4tfEhkIEMOT38peK5fXLjxh43v4X1uVjGp4HAVPoBSc4rqUqU30PTPhdqbW/gqzhlfPJ2g9hU/xN8OL4s8OfaLc/wCmWQLoP7y9xWDo8D2NtDbQhvLjAUV3ej73TZICVIwQa8yT5Z86O6VFKFmc7+z54s8+yufDd3KTLCTJbhj/AA9wK90r5J8WafffDPx5Bq+lOVid/NhPbB+8h/UV9Q+Gtah8ReHrLVYGBS4jDHHY9xXpxkpK6POas7M1aKKKoQUUUUAFFFFABRRRQAUUUUAFfMf7Qtyk/jWztkYlo7cblz0JJr6cr5Q+M9xHL8VpDEytsEYOPXAoA9z8MWY0/wAMabaj/lnbqOntWtUVrzZwH/YH8qlrwm7u53rYKKKfFC8zbUXJpJNuyDYjYZFZOoae1yCFUnPoK62LS0ABkYk+g6VbWCNFwqAfQV2U8JN6y0MnXS2PIbvwvcM2RE1Zc3he4GQUr2+S0jfqBVWTSon/AIRXSsOl1LWLZ893Xw+tJpjLJaDceuOM1A3gOyXI+xr+tfQL6FC38Irl/GtpeaL4cnu9KsGvLzISONF3YJ4zj2qvZy7h7eG7SPIz4Ks1P/HklQT+F9NtU8ye2hiX1Y4r0O+u/wDhDvAlvqXifY2pyLxCoALMe1eU6Xofij4p601xGjx2AfDN0jjHoPU0KlLuN4iCWkUdHFpLRxKIYgqdto4rnPGWhXM2npcxoxMGSwx2PevoG28Hx2tpDBt3CNAuT3xT38JwyoUeJWUjBBHFTGm4u6LnXjOHKz42or1j4n/Ci48PCTWtLRpNPY5ljA5i/wDrV5fY2cuoX0NpAAZZnCLk4GTXSee1Y6bwFpk15qMtwiErEuMj1Neipos7H7hr0Lwd8OoPDvh63tWVWuGXfM453Mf84ron0K2t4nlmKpEgLMzcAAd6wnTcpXOylXVOHKeRJ4fmY8qfyq3F4ZlbHB/KvS9F/sXXYZJdLu4bqON9jmMg4PpWymjwj+EUvYlPFnlEPhKRsZB/KtKDwa5A/qK9NTTol/hFTraovQCn7CJm8VI87h8LPbkFo+B3ArWtbFYQOK7MRrjGOKyL6zEDeYg+Qnp6Vy4ig4rmjsEa7m7M8x+MGif2p4IlnRAZrNhKCew7/pmqX7OettNpupaPLMSYWWWJCegOc4/IV6LqFnDqGnXFncLuhmjZGHsRXhnwWuhpPxWuLBCPLlWSIfgRitMFO8XEyrLW59RUUUV2mIUUUUAFFFFABRRRQAUUUUAFfKnxjtJLf4tmSVUVZ/KdcdxgDn8q+q6+av2iYXh8XabdCPAa3AD+uGNDA9sh/wCPeIDpsHSn1keF9Sj1fwzp99GciWFSfY4rXrwmrOx3omtrdriUKOB3NbkMCQJtQYqDTowlsG7tyat16mGoqEVLqzlqTbdgooorpMgooooAKTAPalooA4H4hfDv/hOdQ0hpbkR2lpITNH3dT6flWj4h8PXNl4DutL8J7bG4SL9z5fB47Z9TXW0UAfNXhP416v4Xc6T4ptJroRMVMjcSp9c9a9O/4XZ4J+xC4+3PuIz5Xlndn0rd8T/Dzw34sVjqFgnnkf6+P5XH5dfxrzr/AIZw0r7WW/te58jPCbRnH1xQBwfj74q6p48k/sfR7WWKwZseUgy831xQ/wADPEyeGYNWg2m8ILvaZw6jtg+te/8Ahj4deGvCO2TT7FPtAGDPKdzH8+n4V00l3bwjMk8aj3YUAfMnhf4z+IPBsQ0jW7BrqOD5QJSVkQenvR4t+L2veOojouh6e9vBP8rpHlnf246CvfNT8LeFfFoZ7uytLtgcNIn3s+5HNWtF8IaB4fO7S9Lt7d8Y3hct+ZoA4f4LeBdT8I6Pc3GqOUnvSp+z5zsA9ffmvU6KKACiiigApksYljZGHBp9FJq6swOcmiMcjRN9K+afBmbX43WyISAL11/DBr6f1RhHcs56Ku4/hXy74Lk+1/Gu0ljGQ16x4/GuPDR5akkjeo7xTPryiiiu0wCiiigAooooAKKKKACiiigAryb48+GE1bwedWQMbjT/AJhj+6etes1XvrODULGazuYxJDMhR1PcGgDwv4Ha99t0C40iVx5lo25AepU/5FerV81AXPwt+KbQuzC2jl2n/bibof619I288d1bRXELBopVDqR3BrysVT5Z36M6qUrqx0lr/wAesf8Au1NVawkD2q46jg1Zr0qbvBM55bsKKKKskKKKKACiiigAooooAKKKKAOG8d+C9a8UyxPpviO401EXBiQkKx9TivGJ/g58QLrV/s1xcmW33c3LXGVI9cZz+lfUFFAHK+CPAum+CNOaCyMjzSgGeR2J3Njt6Vs22u6bearc6XBdxte2wBlhz8yirs8ywQSTNnailjj2rwrSfDWueJ72/wDHGkXjabqM9yxtkkHyvEMjDD34rOpVjTV5MaTex7wSBjJAzS14FrN94w0rxJoV/wCNL4R6ZHMSVsAcZGPvfWvW/DPjfQ/FrTppF0ZXg/1isuCKqE4zV4u6Bqx0VFFFUIKKKR2CKWPQUAcH8S9YOkeF9Uu0bbIsPlqfduP614v8AtMk1Dx9LfsMpbQszEj+JiMf1rpfj3rxj0220uMjNzJ5j/7o6V1vwK8LjRPBY1GVMXOoN5hz2QdB/OufDq6c+7NKnRdj1OiiiugzCiiigAooooAKKKKACiiigAooooA8m+NXw9/4SXSP7Z0+InUbNcso6yR9x9RXJfB7xys1v/wjepy7biI4tmc9R/d+or6FIBBBGQeor5c+LvgS/wDCviV/EWmowsJ5PMDx8eS/oazq01UjZlRlyu59F6dP5U+wn5W/nWzXjPwy+IK+K7H7HeEJqduozz/rAP4h716zYXfnJsc/OP1rmw83B+ymaVFzLmRdooortMQooqhqutabolo11qV5FbQqMku2PyHegC/VY6jZK5U3cIYcEFxxXzt8QfjTf67cto3hXzI7ZjsM6j95L7AdhXO6b8KPGWp27XU032ZmG4LNKdzflUynGPxMai3sfWYIYAggg9xS18u6L438afDPU4rTXYp7jTvu7JDkY9Vau08WfHWCaxjtPCUL3F9OmTIy8RZ9u5pppq6Fax6r4g8UaR4ZtDdarfxQIBkIT8zfQdTSeFvEtr4s0RNVso5EgkYqvmDBOO9fK934a8R6+s+o6vdyTXG0squ2ST6VoeBvGOveG9a0nSNS1KSx0dZsupHGO/4UwPpLxj4qg8HaE+qXFtNcRqwXZEOeTVnw74gt/EXh+DV4Y3hhlXdtlGCoq7FJZ6tYRyp5dzazKGUkZVge9eNfGLxwlh9n8PaBfvbX0cm2aKJMLtIIxQB6xofiXSfEiXJ026ScW8hilAPII/pV/wCyRom2FVQDoqjAr5G0691/4b6xFqtnIXEnM6H7rZ7H/Gvax8dvDp8I/wBqkML77n2L+Lf9fT3rOrShVjyzQ02tja+IOo3llptvp9hp63eoX8nlQB03Ih7sfpmrngHwNbeD9Pd2YTalc/NdT+pPOB6CvBbrxP8AEjx3dPf6elzHboT5aw/Kqj2J6moNB+JnjHwNrZi1n7RcRMf3sFyeceqms8PRhRTjFjk29WfWNFY3hjxNp/izRIdT06TdG4+ZT1Q+hrZroJCs7VLpY4jHnHGWPoKuTzLBEXP4CvBPiv8AEdozJoOjSGS9mO2d05K5/hHvXPWk3+7juzSCS95nFa/LJ8SPivHp8LH7P5wgQrzhB1P6V9WadZR6bp1vZQjEcEYRfwryv4L/AA5Ph3Tv7c1OHGpXK/IrDmJT/U167W0YqKSRDd3cKKKKoQUUUUAFFFFABRRRQAUUUUAFFFFABVPVdLtNZ02awvoVmt5l2srCrlFAHyL4x8Mat8KvGMd5YM62pcvazdiP7pr1/wAAfEmz8WoISPs2pRKC0ZPD+611PxP0rRdV8E3ketXKWsMY3xzHqrjpj19K+PbW9n0rUlurCdlkhfMci8VjVoqovMuE3E+6bS9W4AU8P6etW68Z+GPxDfxdbyWt4Fj1G3AJK/8ALRfX61W+IPxmvtBv5NB0a2Et8o2vORnaT2A7moo1ZX9nPdDnFW5ond+P/iPpfgfTyZWWa/cfubYHk+59BXzyV8WfGDxCZ5Sy24OCRkRRL7D1re8LfDTVfGF62u+LZpkjlO4I5/eSf4Cva9N0yz0ixjs7C3SCCMYCoMVNbFKOkdWVCk3qzmPCfw10PwsI51h+03yjmeXnB9h0FdlRRXnSk5O8joSS2MjxJ4dtPFGjy6deD5XHyuAMoexBrwXwrp40HxXqul3SozWxID459v0xXv8AruuWfh7SJ9RvZFSONcqCeWPYCvmKO61zxN4lv7rSrWV5r1zny1J2g9MntxXbg20nfYxrW07nWeIfGkFirQQ/NL2Uf1rI8F6Fb/EPxGttq+srat/yzhx80nsprvvCXwVtLULd+I3F1Oefs6n5Qfc965Lx3o2meGPiJpi6AwikLozRIf8AVtmumNeEp8sTJ02ldnt2q+KU8D6x4b8J2GnvPDcKsQfJyqg7c/pXmnx30S20zxFa+Ire+hS8lADWhxuOP4h+de76gtlBZDWL22jeazhaQSFcsmBk4r5fsrS9+LvxFuri8laO2GWYj+CMHhRWspKKuyUruyNTRtXs/FWm+TMFFwowyt3rmvDvhqx1D4mxaPOpa1Ejb1BxnAJx+laHiv4d614HvW1PS2efT0O4SJ95B6MK5ex8TPZeMLfX1iy6SCR0z19f51HMpwbgx25XqfWVpaW9hbJbWkSQwxjCogwBWL4s8IaZ4u017a9iUTAfupwPmQ9ufStPR9Vt9b0m31G1YNFOgbg9D3FXa8dNxlfqdlk0fNWm6l4k+EXi5YZWkFqz5eM8xzJnqPevqfSvEFhrGiW+q2cyvbzoGXBzz3H1FcR448J2vi3w/NayIPtMal7eTHKt6fjXh/g3xzqfg1NS0GVZCW3rCh/5ZTdB+Ga9KnXlUg+XdHNKCjLXY9d+LPxEfw3pwtrXH266UiP/AKZr3b618/Wc2peH9b03X722Zy8n2hDMuRJzz1r3PSvAj+JNH0u78Yb5NQt2Lgbs7lPIDVt+OPB1t4o8LtYRosc1uu62IH3SB0+lYwrxg7PVvdlypuSO58MeJLDxVoUGqafIGikHK90PcGtivk74V+NrnwJ4qbStSLJYTyeVOjf8s36Bvzr6vjkWWNZEYMjDII7ivQOcdRRRQAUUUUAFFFFABRRRQAUUUUAFFFFABVXUr+HS9NuL64bbDAhdj7CrVeW/HnWLjTPALQW5K/bJRE5H93uKAPDfFHizXvib4oW1hMhgkl229qp+VRngmvWPDPwf0PSLVX1FTe3bph93CrnsBWN8DfDkUWlz69NGGmlYxwkjlQOuK9frzsTXfNyR6HTSpq12ch4a+Hek+FdcudT095R5ybFiY5CeuK0o/CGip4hn1xrRZL2Xqz8hfcCt2iuR1JN3bNVFIbI6RRtI7BUQZJPQCvBfG3xX1C91dIvDbvDbWb5aQc+aR6j0rsvi94gns9MtdDspNk+oth2BxhP85ryPXbbR7AwnS7kC7hUBgvzCQ98124WgmueRjVm72R6n4X+NWk38KQa2ps7oDBkHKN/hWvrnxb8MaVZmS2uft05HyxRf1NeSeGfhtqfjSZ70Rrp1n0LuCNzd8CvStB+CmhaZIs2oyvfyKchW4X8qmpChGW/yCMqjRwP/ABU3xc8QRNJE8OmRtzjISNf6mvedD0DTvD1glpp9skSqBuYDlj6k1btLO2sLdbe0gjhhUYCIuBTri4itLaW4ncJFEpZmJ4AFYVKrn7qVkaRhbVlDxBr1n4c0ibUbyQKkYO0HqzdhXj/wt8LXXjrxxceKNSUmxgmMnzD779l/AVg3+o618W/GsWlW0my2Lnyo84VFH8R98V9PeFfDlr4V8PWuk2igJEvzN/ebua78PR9mrvdnPUnzPQ0720jvrGe0mGYpozGw9iMV8p6Vd3Xwq+JVxa30bC0dyjnH3kJ4YV9Z15/8Ufh5beNdFaaJQmp2yFoJB/F/smt5RUlZkJ2dzRjks9X04OjJcWlwn1DKa+f/AInfDQeG/wDibaUHbT3bEiHkxE/0ra+C3iC5s9Wu/C+oSMMEmKNz91x1Ar2m6tbe+tZLW6iWWCQbXRhkEV5l5YepbodNlUifNvw6+IVx4Quha3ZabSpmyw7xn1FfQdh4m0XU7Rbq11K3eIjOS4BH1rwX4heAx4S1T7TDE0mi3LdusR9KyrPwJNfxJcWGoxtbuM9TkfWuqVGFZc8WZqcoaM+mbXVdPvpnhtLyGaRBllRskCvEvjR4ak07WrfxJZRhY5cCXaPuuO/48Vg6PqN58MPEyXGRPaTrslU9SK+gJYtP8W+GQsiB7O+h3DcORkfzFc7i8PNPoXdVI26lDwN4og8VeG7e7R1+0ooSeMHlWrpa8P8Ah1oeueEfiRcaXLBL9ikRg0m07GUcg56V7hWNaCjL3di4Ntanhvxu8JCCaLxHZxhUkIS4Cjo3Zq9a+D/iUeI/AVoZH3XNp+4lz146H/PpT/EmkRa94dvtOlAIliO32Ycg/nivJvgFrLaT4x1DQJmIS4U7Qf76HH8ia7sJU5ocr6GFWNnc+lKKKK6zIKKKKACiiigAooooAKKKKACiiigAryj4/wCnT3ngJJ4ULC3nDvjsPWvV6rahYW+p6fPZXUYkgmQo6kdQaAPFfgnrNveeEDpoZRcWkhymeSpOc16bXzXrml638IfHBmtS32ZmJhc8rLGf4T74r2zwj460nxbZo1vMkd4B+8t2OGB9vUV5mJouMnJbM6qU01Y6iiiiuQ1OD8WfDSLxb4gj1K61OWKJECCFF6DPY5rX0rwD4a0co1vpkTSqMeZINxNdLRVurNrlvoTyq9xqIkaBEVVUdAowKdRXP+JvGmjeFbcvqFyplx8sCHLt+FSk5OyG2kb7MqIXdgqqMkk4Arwb4p/Ed9Wlk8PaMxNsG2zSp1lPoPasfxJ8R/EPje9XS9Kjkgt5W2pBBne/1NeofDD4LxaKyav4kiSa/wAhooCcrF7n1NehQwvK+ae5z1Kt9EWfgl8OpvDdi+t6pFsv7pNscZ6xoeefc16/R0ortMQooooA+bPi/wCGr7wh41h8XaTEVt5XEjMo4SQdQfY16V4M8X2fjDRku4CEuFAE8OeUb/Cu51vRrPxBo9xpl/H5lvOhVh6e496+Wta0fxB8HfF4ntXd7N2/dyY+SZP7re9c9eiqi03NKc+Vn0JqWm2mr2EtlfQrNbyDDKwrwHWtK1n4d69LaWUD3VldN/ohwT16D61694N8faV4xtiLdvJvEA8yBzz9R6iuokhimKmWJHKHK7lB2n1FcNOpOhKzRvKKmrnk/hX4VPfyprXiyVprh8Otr2X6/wCFesRRRwQpDCipGg2qqjAAp9FZVKkqjvIqMVHYTAznAz64paKKgoVeGFfN2nQPp3x5ihjYrt1AjI9CM19GTzxWsElxO4SKJS7segA5NfPvg+GXxh8cP7QswTAlw1wzeiAYrtwV+ZmFbZH1ZRRRXonOFFFFABRRRQAUUUUAFFFFABRRRQAUUUUAfOP7R+pSvrOl6bgCJIjL16npXlkWia9pemWniG2hmS3kY+XPF/CR646V2vx9naX4kyQk5WKCML7ZUGvZ/Cek29n4K03T2jWWLyAWVxkHNYV6vs0jSnDmZ5d4V+OBihjtfEMDyFePtMXUj3Fem6Z488Masga21eAE/wAMh2H9a5TxF8FtF1WaS506Z7GVgT5Y5TP07Vw8nwJ8TiVVtJ7WYnvv24rl5KFV+67M0vOO+p7lceJdDtU3T6tZoP8ArqD/ACrkda+MfhnTFZbWSS+mHAWJcD8zXGWv7Pfii4Zftl/bRL3+YuRXVab+zjp0UivqOrzTqDkpEgTP55rWOCgt2S6z6Hn2u/GfxDq+bfTEWyjbgeXy5/GofDHwr8V+Nrn7XdiS2gZsvcXWQzfQdTX0VoXwz8KeHmElnpUTS/8APSX5z+vFdaqhVCqAAOgFdMKcYfCjJyb3OO8F/DXQvBUQe0h829K4e5kGWP09K7KiirEFFFFABRRRQAVQ1fRdP17T5LLUrWO4gcYKuM49x71fooA+WfHHwr13wPqbatoBmmsVbejw53xexA7VNoHxy1C0VYNbsxcheDKnD/iK+n2RXQq6hlIwQRkGuE8UfCPwt4mR3azFnckcTW/y8+46VnOlGfxIqMnHYqaF420DxDAj2eoRCRhzFI21gfoa6EfMMqQR6jmvAdd+A/inSJ2l0iRb2IH5TGxV8fSuc+3/ABA8IT+VI2o25X+GRSwP51yTwX8rNlW7o+oaDwCTwB1Jr5pT4v8AjOM7TOrEf3oqyNW+IHi3UQ63WpXEccowUUbQRWawc+rH7ZHefFn4j+eZfDujyhoj8txMh+8f7orvPgR4Ok0Lw3Lqt7Dsu78gqGHzLGOn55/SuR+E3wgTUktfEmusJIGIlgtwc7+4Lf4V9DoixoqIoVVGAB0Arvp01TjyowlJyd2OooorQkKKKKACiiigAooooAKKKKACiiigAooooA+Ovi5dSXnxN1QsclJBGPoOK+kdGTZodgvpAn8q+cviFblPi/exzAhXvFJz6E19L26qttCq/dEa4/KuDGvZG9DqSVo6UmZHf0GKzq0tJPMg+lc+G/io1qfCzUooor1zjCiiigAooooAKKKKACiiigAooooAKKKKACs/Vo0e1G9FbnuM1oVR1T/j3H1rGv8Aw2XT+JHMHQ9JaUynTbQyH+IxDNeS/HnTUjs9IuoYkjRS8ZCrj0r2mvNfjfAkngVJm+9Fcrt/Hr/KvOw8n7RHRUXus6n4H3n2r4Z2S94ndP8Ax416PXlH7PzA/DzG4HFw/Hpya9Xr1zkCiiigAooooAKKKKACiiigAooooAKKKKACiiigD5T+N2LT4svOBwEhf8lFe+6dMtxplrMvR4lIx9K8Z/aNshF4o027AwZrchj6kGvS/AF59v8AAukznr5IU/hXDjVomb0Hq0dJWnpI5kP0rMrR0lv3jr7Zrmw38VGtT4WatFFFeucYUUUUAFFFFABRRRQAUUUUAFFFFABRRRQAVR1T/j3X61eqhqrAQKvcmscR/CZdP4kZFec/G3/knzf9fMf9a9GrzP44uF8Dxqf4rla8yh/EidM/hZa/Zydj4T1JScqLkYHpxXtFePfs7Rqvgq7kAIZrk5PrXsNeycYUUUUAFFFFABRRRQAUUUUAFFFFABRRRQAUUUUAcN8Sfh1B4+02CPz/ALNd27ZjlxkY7girvhfwWvhnw5a6VHcmXyRy5HUmusoqJ04zVpFRk46ozBpPH+t5+lWLWyFs5bdkkYq3RURw9OLukN1JNWYUUUVsQFFFFABRRRQAUUUUAFFFFABRRRQAUUUUAFVL61a5VdpAIPerdFTOCnHlY02ndGQNKl/vrXNeOPh63jLQ109rwW5SQOH25rvKKxjhqcXdFupJqzOW8AeDY/A/hxdLS4Nwxcu8mMZJ9q6miiugzCiiigAooooAKKKKACiiigAooooAKKKKACiiigAooooAKKKKACiiigAooooAKKKKACiiigAooooAKKKKACiiigAooooAKKKKACiiigAooooAKKKKACiiigD/2Q==;fontSize=24;" parent="1" vertex="1">
          <mxGeometry x="110" y="490" width="170" height="170" as="geometry" />
        </mxCell>
        <mxCell id="Nn_NQeG1ST4IdmQyPQJt-19" value="。。。" style="shape=callout;whiteSpace=wrap;html=1;perimeter=calloutPerimeter;rounded=1;shadow=0;dashed=1;labelBackgroundColor=none;sketch=0;strokeWidth=2;fontSize=24;" parent="1" vertex="1">
          <mxGeometry x="170" y="430" width="110" height="70" as="geometry" />
        </mxCell>
        <mxCell id="Nn_NQeG1ST4IdmQyPQJt-21" value="" style="fontColor=#0066CC;verticalAlign=top;verticalLabelPosition=bottom;labelPosition=center;align=center;html=1;outlineConnect=0;fillColor=#CCCCCC;strokeColor=#6881B3;gradientColor=none;gradientDirection=north;strokeWidth=2;shape=mxgraph.networks.proxy_server;rounded=1;shadow=0;dashed=1;labelBackgroundColor=none;sketch=0;fontSize=24;" parent="1" vertex="1">
          <mxGeometry x="760" y="75" width="105" height="105" as="geometry" />
        </mxCell>
        <mxCell id="Nn_NQeG1ST4IdmQyPQJt-22" value="&lt;font style=&quot;font-size: 24px&quot;&gt;Nginx&lt;/font&gt;" style="text;html=1;strokeColor=none;fillColor=none;align=center;verticalAlign=middle;whiteSpace=wrap;rounded=0;shadow=0;dashed=1;labelBackgroundColor=none;sketch=0;fontSize=24;fontColor=#000000;" parent="1" vertex="1">
          <mxGeometry x="785" y="40" width="40" height="20" as="geometry" />
        </mxCell>
        <mxCell id="Nn_NQeG1ST4IdmQyPQJt-24" value="&lt;font style=&quot;font-size: 24px&quot;&gt;后端服务器&lt;/font&gt;" style="text;html=1;strokeColor=none;fillColor=none;align=center;verticalAlign=middle;whiteSpace=wrap;rounded=0;shadow=0;dashed=1;labelBackgroundColor=none;sketch=0;fontSize=24;fontColor=#000000;" parent="1" vertex="1">
          <mxGeometry x="1330" y="130" width="130" height="20" as="geometry" />
        </mxCell>
        <mxCell id="Nn_NQeG1ST4IdmQyPQJt-25" value="2.GET&amp;nbsp;" style="shape=flexArrow;endArrow=classic;html=1;strokeColor=#788AA3;fillColor=#B2C9AB;fontSize=24;fontColor=#000000;" parent="1" edge="1">
          <mxGeometry width="50" height="50" relative="1" as="geometry">
            <mxPoint x="960" y="130" as="sourcePoint" />
            <mxPoint x="1259" y="200" as="targetPoint" />
          </mxGeometry>
        </mxCell>
        <mxCell id="Nn_NQeG1ST4IdmQyPQJt-26" value="" style="shape=singleArrow;direction=south;whiteSpace=wrap;html=1;rounded=1;shadow=0;dashed=1;labelBackgroundColor=none;sketch=0;strokeColor=#82B366;strokeWidth=2;fillColor=#B2C9AB;fontSize=24;fontColor=#000000;arrowWidth=0.36666666666666664;arrowSize=0.015841584158415842;" parent="1" vertex="1">
          <mxGeometry x="900" y="-70" width="50.76" height="990" as="geometry" />
        </mxCell>
        <mxCell id="Nn_NQeG1ST4IdmQyPQJt-27" value="" style="shape=singleArrow;direction=south;whiteSpace=wrap;html=1;rounded=1;shadow=0;dashed=1;labelBackgroundColor=none;sketch=0;strokeColor=#82B366;strokeWidth=2;fillColor=#B2C9AB;fontSize=24;fontColor=#000000;arrowWidth=0.36666666666666664;arrowSize=0.015841584158415842;" parent="1" vertex="1">
          <mxGeometry x="1270" y="-60" width="42.28" height="980" as="geometry" />
        </mxCell>
        <mxCell id="Nn_NQeG1ST4IdmQyPQJt-28" value="收到，处理中" style="shape=callout;whiteSpace=wrap;html=1;perimeter=calloutPerimeter;rounded=1;shadow=0;dashed=1;labelBackgroundColor=none;sketch=0;strokeWidth=2;fontSize=24;" parent="1" vertex="1">
          <mxGeometry x="1440" y="70" width="170" height="70" as="geometry" />
        </mxCell>
        <mxCell id="Nn_NQeG1ST4IdmQyPQJt-29" value="3. ❌ 我要断开连接" style="shape=flexArrow;endArrow=classic;html=1;strokeColor=#788AA3;fillColor=#B2C9AB;fontSize=24;fontColor=#000000;" parent="1" edge="1">
          <mxGeometry width="50" height="50" relative="1" as="geometry">
            <mxPoint x="1262.0700000000002" y="770" as="sourcePoint" />
            <mxPoint x="963.0700000000002" y="700" as="targetPoint" />
          </mxGeometry>
        </mxCell>
        <mxCell id="Nn_NQeG1ST4IdmQyPQJt-30" value="&lt;span style=&quot;background-color: rgb(255, 255, 255); font-size: 24px;&quot;&gt;服务器都崩了，我没得选啊&lt;/span&gt;" style="shape=callout;whiteSpace=wrap;html=1;perimeter=calloutPerimeter;rounded=1;shadow=0;dashed=1;labelBackgroundColor=none;sketch=0;strokeWidth=2;fontSize=24;" parent="1" vertex="1">
          <mxGeometry x="720" y="530" width="170" height="120" as="geometry" />
        </mxCell>
        <mxCell id="Nn_NQeG1ST4IdmQyPQJt-31" value="" style="fontColor=#0066CC;verticalAlign=top;verticalLabelPosition=bottom;labelPosition=center;align=center;html=1;outlineConnect=0;fillColor=#CCCCCC;strokeColor=#6881B3;gradientColor=none;gradientDirection=north;strokeWidth=2;shape=mxgraph.networks.proxy_server;rounded=1;shadow=0;dashed=1;labelBackgroundColor=none;sketch=0;fontSize=24;" parent="1" vertex="1">
          <mxGeometry x="760" y="685" width="105" height="105" as="geometry" />
        </mxCell>
        <mxCell id="Nn_NQeG1ST4IdmQyPQJt-32" value="&lt;font style=&quot;font-size: 24px&quot;&gt;Nginx&lt;/font&gt;" style="text;html=1;strokeColor=none;fillColor=none;align=center;verticalAlign=middle;whiteSpace=wrap;rounded=0;shadow=0;dashed=1;labelBackgroundColor=none;sketch=0;fontSize=24;fontColor=#000000;" parent="1" vertex="1">
          <mxGeometry x="785" y="650" width="40" height="20" as="geometry" />
        </mxCell>
        <mxCell id="Nn_NQeG1ST4IdmQyPQJt-38" value="4. 好的" style="shape=flexArrow;endArrow=classic;html=1;strokeColor=#788AA3;fillColor=#B2C9AB;fontSize=24;fontColor=#000000;" parent="1" edge="1">
          <mxGeometry width="50" height="50" relative="1" as="geometry">
            <mxPoint x="971" y="760" as="sourcePoint" />
            <mxPoint x="1270" y="830" as="targetPoint" />
          </mxGeometry>
        </mxCell>
        <mxCell id="Nn_NQeG1ST4IdmQyPQJt-45" value="" style="fontColor=#0066CC;verticalAlign=top;verticalLabelPosition=bottom;labelPosition=center;align=center;html=1;outlineConnect=0;fillColor=#CCCCCC;strokeColor=#6881B3;gradientColor=none;gradientDirection=north;strokeWidth=2;shape=mxgraph.networks.server;rounded=1;shadow=0;dashed=1;labelBackgroundColor=none;sketch=0;fontSize=24;" parent="1" vertex="1">
          <mxGeometry x="1350" y="750" width="90" height="100" as="geometry" />
        </mxCell>
        <mxCell id="Nn_NQeG1ST4IdmQyPQJt-46" value="&lt;font style=&quot;font-size: 24px&quot;&gt;后端服务器&lt;/font&gt;" style="text;html=1;strokeColor=none;fillColor=none;align=center;verticalAlign=middle;whiteSpace=wrap;rounded=0;shadow=0;dashed=1;labelBackgroundColor=none;sketch=0;fontSize=24;fontColor=#000000;" parent="1" vertex="1">
          <mxGeometry x="1330" y="860" width="130" height="20" as="geometry" />
        </mxCell>
        <mxCell id="Nn_NQeG1ST4IdmQyPQJt-47" value="我，尼古拉斯·服务器，今天原地崩溃，谁劝都不好使" style="shape=callout;whiteSpace=wrap;html=1;perimeter=calloutPerimeter;rounded=1;shadow=0;dashed=1;labelBackgroundColor=none;sketch=0;strokeWidth=2;fontSize=24;" parent="1" vertex="1">
          <mxGeometry x="1450" y="580" width="210" height="160" as="geometry" />
        </mxCell>
        <mxCell id="Nn_NQeG1ST4IdmQyPQJt-50" value="&lt;font style=&quot;font-size: 36px&quot;&gt;502产生过程&lt;/font&gt;" style="text;html=1;strokeColor=none;fillColor=none;align=center;verticalAlign=middle;whiteSpace=wrap;rounded=0;shadow=0;dashed=1;labelBackgroundColor=none;sketch=0;fontSize=16;fontColor=#000000;" parent="1" vertex="1">
          <mxGeometry x="520" y="-170" width="267" height="20" as="geometry" />
        </mxCell>
        <mxCell id="ctHWblrnkFm_AJ1cuDZW-5" value="5.给你个502，原因是服务器没了" style="shape=flexArrow;endArrow=classic;html=1;strokeColor=#788AA3;fillColor=#B2C9AB;fontSize=24;fontColor=#000000;" parent="1" edge="1">
          <mxGeometry width="50" height="50" relative="1" as="geometry">
            <mxPoint x="639" y="695" as="sourcePoint" />
            <mxPoint x="340" y="625" as="targetPoint" />
          </mxGeometry>
        </mxCell>
        <mxCell id="dfzYIINs8r5-yVM9q5u8-8" value="" style="shape=image;html=1;verticalAlign=top;verticalLabelPosition=bottom;labelBackgroundColor=#ffffff;imageAspect=0;aspect=fixed;image=https://cdn4.iconfinder.com/data/icons/free-game-icons/64/Explosion.png;dashed=1;sketch=0;fontSize=24;" parent="1" vertex="1">
          <mxGeometry x="1363" y="750" width="64" height="64" as="geometry" />
        </mxCell>
      </root>
    </mxGraphModel>
  </diagram>
</mxfile>
